# vtk DataFile Version 3.0
mCR artificial vessel centerline (millimetres)
ASCII
DATASET POLYDATA
POINTS 181 float
0 0 0
0 1.58333333 0
0 3.16666667 0
0 4.75 0
0 6.33333333 0
0 7.91666667 0
0 9.5 0
0 11.0833333 0
0 12.6666667 0
0 14.25 0
0 15.8333333 0
0 17.4166667 0
0 19 0
0 20.5833333 0
0 22.1666667 0
0 23.75 0
0 25.3333333 0
0 26.9166667 0
0 28.5 0
0 30.0833333 0
0.000359911296 31.6666667 8.05325895e-05
0.0144023204 33.25 0.00356833916
0.0528393705 34.8333333 0.0141533347
0.12017775 36.4166667 0.0342883013
0.219630821 38 0.0661031413
0.35299658 39.5833333 0.11134408
0.520569997 41.1666667 0.171320669
0.721091869 42.75 0.246861648
0.951735568 44.3333333 0.338280556
1.20813229 45.9166667 0.445351813
1.48443463 47.5 0.567297812
1.77341742 49.0833333 0.702787365
2.06661415 50.6666667 0.849945622
2.3544864 52.25 1.00637542
2.62662307 53.8333333 1.16918975
2.87196549 55.4166667 1.33505495
3.07905417 57 1.50024381
3.23629199 58.5833333 1.66069787
3.33221881 60.1666667 1.81209786
3.35579169 61.75 1.94994105
3.29666514 63.3333333 2.06962425
3.1454654 64.9166667 2.16653103
2.89405308 66.5 2.23612168
2.53576847 68.0833333 2.27402428
2.06565417 69.6666667 2.2761253
1.48065014 71.25 2.23865818
0.779756497 72.8333333 2.15828818
-0.0358397086 74.4166667 2.03219205
-0.962677087 76 1.85813096
-1.99497447 77.5833333 1.63451538
-3.12462918 79.1666667 1.3604606
-4.34126006 80.75 1.03583184
-5.63229527 82.3333333 0.661277851
-6.9831043 83.9166667 0.238252478
-8.37717255 85.5 -0.230976656
-9.79631603 87.0833333 -0.743332519
-11.2209332 88.6666667 -1.29494635
-12.6302897 90.25 -1.88118855
-14.0028321 91.8333333 -2.49671252
-15.3165243 93.4166667 -3.13551097
-16.5492021 95 -3.79098394
-17.6789394 96.5833333 -4.45601768
-18.6844196 98.1666667 -5.12307331
-19.5453054 99.75 -5.78428398
-20.2426013 101.333333 -6.43155911
-20.7590009 102.916667 -7.05669419
-21.0792147 104.5 -7.65148455
-21.1902697 106.083333 -8.20784133
-21.081777 107.666667 -8.71790783
-20.7461626 109.25 -9.17417462
-20.1788547 110.833333 -9.56959145
-19.3784262 112.416667 -9.89767429
-18.3466878 114 -10.1526058
-17.0887293 115.583333 -10.3293276
-15.61291 117.166667 -10.4236231
-13.930794 118.75 -10.4321888
-12.0570347 120.333333 -10.3526941
-10.0092076 121.916667 -10.1838274
-7.80759413 123.5 -9.9253285
-5.47492007 125.083333 -9.57800607
-3.03605249 126.666667 -9.14374066
-0.517659434 128.25 -8.62547218
2.05216179 129.833333 -8.02717259
4.644282 131.416667 -7.35380378
7.22895674 133 -6.61126134
9.77625529 134.583333 -5.80630497
12.2564952 136.166667 -4.94647631
14.6406751 137.75 -4.04000572
16.9008987 139.333333 -3.09570894
19.0107831 140.916667 -2.12287538
20.9458445 142.5 -1.13114958
22.6838552 144.083333 -0.13040753
24.2051659 145.666667 0.869370238
25.4929875 147.25 1.85822711
26.5336293 148.833333 2.82635833
27.316688 150.416667 3.7642367
27.835185 152 4.66273412
28.0856514 153.583333 5.51323724
28.0681566 155.166667 6.30775557
27.7862831 156.75 7.03902036
27.2470458 158.333333 7.7005731
26.4607595 159.916667 8.28684205
25.440855 161.5 8.79320606
24.2036489 163.083333 9.21604452
22.7680699 164.666667 9.55277306
21.1553471 166.25 9.80186435
19.3886658 167.833333 9.9628539
17.4927962 169.416667 10.0363309
15.493702 171 10.0239141
13.4181354 172.583333 9.928214
11.2932248 174.166667 9.75278074
9.14606366 175.75 9.50203981
7.00330529 177.333333 9.18121609
4.89077222 178.916667 8.79624753
2.8330854 180.5 8.3536899
0.853319613 182.083333 7.8606143
-1.02730947 183.666667 7.3244988
-2.78972171 185.25 6.75311616
-4.4172083 186.833333 6.15441929
-5.89562335 188.416667 5.5364262
-7.21352891 190 4.9071063
-8.36229142 191.583333 4.27426975
-9.33612902 193.166667 3.64546144
-10.1321094 194.75 3.02786138
-10.7500995 196.333333 2.42819273
-11.1926684 197.916667 1.85263896
-11.4649465 199.5 1.30677123
-11.5744438 201.083333 0.795487023
-11.5308315 202.666667 0.322960732
-11.3456922 204.25 -0.107393089
-11.0322428 205.833333 -0.49294352
-10.6050362 207.416667 -0.831853904
-10.0796483 209 -1.1230794
-9.47235543 210.583333 -1.36635169
-8.79980897 212.166667 -1.56215138
-8.07871333 213.75 -1.71166868
-7.3255131 215.333333 -1.81675333
-6.55609526 216.916667 -1.87985475
-5.78551188 218.5 -1.9039536
-5.02772817 220.083333 -1.89248605
-4.29540024 221.666667 -1.84926235
-3.59968637 223.25 -1.77838087
-2.95009484 224.833333 -1.68413963
-2.35437053 226.416667 -1.57094648
-1.81842187 228 -1.44322985
-1.34628877 229.583333 -1.30535153
-0.94015143 231.166667 -1.16152294
-0.600379064 232.75 -1.01572653
-0.325616837 234.333333 -0.871643433
-0.112908487 235.916667 -0.732588818
0.0421485021 237.5 -0.601455869
0.145218992 239.083333 -0.480669391
0.203021887 240.666667 -0.37214977
0.223102261 242.25 -0.277287843
0.213589068 243.833333 -0.19693104
0.18294387 245.416667 -0.131380953
0.139706178 247 -0.0804022803
0.0922409881 248.583333 -0.0432428946
0.048494093 250.166667 -0.0186645778
0.0157604948 251.75 -0.00498378366
0.000471005849 253.333333 -0.000121599655
0 254.916667 0
0 256.5 0
0 258.083333 0
0 259.666667 0
0 261.25 0
0 262.833333 0
0 264.416667 0
0 266 0
0 267.583333 0
0 269.166667 0
0 270.75 0
0 272.333333 0
0 273.916667 0
0 275.5 0
0 277.083333 0
0 278.666667 0
0 280.25 0
0 281.833333 0
0 283.416667 0
0 285 0
LINES 1 182
181 0 1 2 3 4 5 6 7 8 9 10 11 12 13 14 15 16 17 18 19 20 21 22 23 24 25 26 27 28 29 30 31 32 33 34 35 36 37 38 39 40 41 42 43 44 45 46 47 48 49 50 51 52 53 54 55 56 57 58 59 60 61 62 63 64 65 66 67 68 69 70 71 72 73 74 75 76 77 78 79 80 81 82 83 84 85 86 87 88 89 90 91 92 93 94 95 96 97 98 99 100 101 102 103 104 105 106 107 108 109 110 111 112 113 114 115 116 117 118 119 120 121 122 123 124 125 126 127 128 129 130 131 132 133 134 135 136 137 138 139 140 141 142 143 144 145 146 147 148 149 150 151 152 153 154 155 156 157 158 159 160 161 162 163 164 165 166 167 168 169 170 171 172 173 174 175 176 177 178 179 180
POINT_DATA 181
SCALARS Radius float 1
LOOKUP_TABLE default
4
4
4
4
4
4
4
4
4
4
4
4
4
4
4
4
4
4
4
4
4
4
4
4
4
4
4
4
4
4
4
4
4
4
4
4
4
4
4
4
4
4
4
4
4
4
4
4
4
4
4
4
4
4
4
4
4
4
4
4
4
4
4
4
4
4
4
4
4
4
4
4
4
4
4
4
4
4
4
4
4
4
4
4
4
4
4
4
4
4
4
4
4
4
4
4
4
4
4
4
4
4
4
4
4
4
4
4
4
4
4
4
4
4
4
4
4
4
4
4
4
4
4
4
4
4
4
4
4
4
4
4
4
4
4
4
4
4
4
4
4
4
4
4
4
4
4
4
4
4
4
4
4
4
4
4
4
4
4
4
4
4
4
4
4
4
4
4
4
4
4
4
4
4
4
4
4
4
4
4
4
