# vtk DataFile Version 3.0
mCR artificial vessel centerline (millimetres)
ASCII
DATASET POLYDATA
POINTS 181 float
0 0 0
0 1.83333333 0
0 3.66666667 0
0 5.5 0
0 7.33333333 0
0 9.16666667 0
0 11 0
0 12.8333333 0
0 14.6666667 0
0 16.5 0
0 18.3333333 0
0 20.1666667 0
0 22 0
0 23.8333333 0
0 25.6666667 0
0 27.5 0
0 29.3333333 0
0 31.1666667 0
0 33 0
0 34.8333333 0
0.000738167128 36.6666667 0.000529337765
0.0248138343 38.5 0.0201683075
0.0762472811 40.3333333 0.0707574397
0.143797255 42.1666667 0.154284965
0.213907211 44 0.270658673
0.271334592 45.8333333 0.417663069
0.299858602 47.6666667 0.590982727
0.283042303 49.5 0.784291683
0.205022939 51.3333333 0.98940702
0.0513032574 53.1666667 1.19650313
-0.190483725 55 1.39438155
-0.529863534 56.8333333 1.57078985
-0.972888265 58.6666667 1.71278171
-1.52160733 60.5 1.80710914
-2.17366152 62.3333333 1.84063704
-2.92201737 64.1666667 1.80076939
-3.75485484 66 1.67587623
-4.6556166 67.8333333 1.45571005
-5.60322244 69.6666667 1.13180065
-6.57244732 71.5 0.697817702
-7.53445638 73.3333333 0.149890879
-8.45748547 75.1666667 -0.513121534
-9.30765088 77 -1.28942381
-10.0498679 78.8333333 -2.17414042
-10.6488539 80.6666667 -3.15924557
-11.0701885 82.5 -4.23356816
-11.2814015 84.3333333 -5.38287435
-11.2530572 86.1666667 -6.59002771
-10.9598026 88 -7.83522535
-10.381349 89.8333333 -9.09630661
-9.50335587 91.6666667 -10.349129
-8.31818801 93.5 -11.5680044
-6.82552147 95.3333333 -12.7261876
-5.03277538 97.1666667 -13.796407
-2.95535247 99 -14.7514258
-0.616675249 100.833333 -15.5646246
1.95198947 102.666667 -16.210589
4.71191963 104.5 -16.6656929
7.61753666 106.333333 -16.9086624
10.6172042 108.166667 -16.9211087
13.6542117 110 -16.6880168
16.6679218 111.833333 -16.1981789
19.5950576 113.666667 -15.4445628
22.3710982 115.5 -14.4246038
24.9317514 117.333333 -13.1404151
27.2144671 119.166667 -11.5989081
29.1599538 121 -9.8118201
30.7136611 122.833333 -7.79564588
31.8271881 124.666667 -5.57147297
32.459584 126.5 -3.16472279
32.5785036 128.333333 -0.604800684
32.1611875 130.166667 2.07533935
31.1952396 132 4.83970764
29.6791789 133.833333 7.64986063
27.6227473 135.666667 10.4655405
25.0469643 137.5 13.2453608
21.98392 139.333333 15.947525
18.4763103 141.166667 18.530564
14.5767204 143 20.9540781
10.3466707 144.833333 23.179469
5.85544544 146.666667 25.1706473
1.17872877 148.5 26.8947008
-3.60292052 150.333333 28.3225112
-8.4057217 152.166667 29.4293055
-13.1444138 154 30.1951319
-17.7340464 155.833333 30.6052495
-22.0917764 157.666667 30.6504247
-26.1386312 159.5 30.3271268
-29.8011928 161.333333 29.6376206
-33.0131677 163.166667 28.5899508
-35.7168007 165 27.1978218
-37.8641032 166.833333 25.4803719
-39.4178645 168.666667 23.4618483
-40.3524237 170.5 21.1711878
-40.6541831 172.333333 18.641512
-40.3218531 174.166667 15.9095466
-39.3664218 176 13.0149767
-37.8108519 177.833333 9.99974966
-35.689513 179.666667 6.90734021
-33.0473634 181.5 3.78199142
-29.9389025 183.333333 0.667946956
-26.4269195 185.166667 -2.39131094
-22.5810692 187 -5.35380279
-18.4763103 188.833333 -8.17975834
-14.1912437 190.666667 -10.8322748
-9.80639049 192.5 -13.2779141
-5.4024522 194.333333 -15.487229
-1.05859283 196.166667 -17.4352071
3.14921555 198 -19.1016263
7.14974612 199.833333 -20.4713148
10.8779339 201.666667 -21.5343129
14.2761238 203.5 -22.2859327
17.2951236 205.333333 -22.7267182
19.8950394 207.166667 -22.8623062
22.0458774 209 -22.7031941
23.7279029 210.833333 -22.264418
24.9317514 212.666667 -21.5651525
25.6582942 214.5 -20.6282387
25.9182688 216.333333 -19.4796523
25.7316858 218.166667 -18.1479246
25.1270342 220 -16.6635269
24.1403085 221.833333 -15.0582347
22.8138862 223.666667 -13.3644813
21.1952883 225.5 -11.6147186
19.3358563 227.333333 -9.84079487
17.2893812 229.166667 -8.07336394
15.1107222 231 -6.34133683
12.8544489 232.833333 -4.67138676
10.5735425 234.666667 -3.08751657
8.31818801 236.5 -1.61069651
6.13468566 238.333333 -0.258578223
4.06450702 240.166667 0.954710442
2.14351631 242 2.01868768
0.401372481 243.833333 2.92655626
-1.13887777 245.666667 3.6751598
-2.46101103 247.5 4.26485984
-3.555643 249.333333 4.69933874
-4.42005536 251.166667 4.98533468
-5.05784464 253 5.13231684
-5.4784093 254.833333 5.15210987
-5.69629508 256.666667 5.05847774
-5.73042242 258.5 4.86667787
-5.60322244 260.333333 4.59299706
-5.33971017 262.166667 4.25428073
-4.96652467 264 3.86746716
-4.51096625 265.833333 3.44913791
-4.0000601 267.666667 3.01509521
-3.45967447 269.5 2.57997619
-2.91371911 271.333333 2.15691274
-2.38344693 273.166667 1.75724462
-1.88687798 275 1.390292
-1.43836092 276.833333 1.06319208
-1.04828264 278.666667 0.780802675
-0.722931691 280.5 0.54567421
-0.464516548 282.333333 0.358089484
-0.271334592 284.166667 0.216169207
-0.13808317 286 0.116039438
-0.0562995188 287.833333 0.0520556364
-0.0149124302 289.666667 0.01707658
-0.000885056397 291.5 0.00278021019
7.45192992e-05 293.333333 1.2403296e-05
0 295.166667 0
0 297 0
0 298.833333 0
0 300.666667 0
0 302.5 0
0 304.333333 0
0 306.166667 0
0 308 0
0 309.833333 0
0 311.666667 0
0 313.5 0
0 315.333333 0
0 317.166667 0
0 319 0
0 320.833333 0
0 322.666667 0
0 324.5 0
0 326.333333 0
0 328.166667 0
0 330 0
LINES 1 182
181 0 1 2 3 4 5 6 7 8 9 10 11 12 13 14 15 16 17 18 19 20 21 22 23 24 25 26 27 28 29 30 31 32 33 34 35 36 37 38 39 40 41 42 43 44 45 46 47 48 49 50 51 52 53 54 55 56 57 58 59 60 61 62 63 64 65 66 67 68 69 70 71 72 73 74 75 76 77 78 79 80 81 82 83 84 85 86 87 88 89 90 91 92 93 94 95 96 97 98 99 100 101 102 103 104 105 106 107 108 109 110 111 112 113 114 115 116 117 118 119 120 121 122 123 124 125 126 127 128 129 130 131 132 133 134 135 136 137 138 139 140 141 142 143 144 145 146 147 148 149 150 151 152 153 154 155 156 157 158 159 160 161 162 163 164 165 166 167 168 169 170 171 172 173 174 175 176 177 178 179 180
POINT_DATA 181
SCALARS Radius float 1
LOOKUP_TABLE default
4.5
4.49997796
4.49989399
4.49971797
4.49941554
4.49894844
4.49827486
4.49734977
4.49612544
4.49455176
4.4925768
4.49014723
4.48720886
4.48370714
4.47958766
4.47479671
4.4692818
4.46299217
4.45587933
4.44789756
4.43900441
4.42916117
4.41833332
4.40649099
4.39360935
4.37966895
4.36465612
4.34856321
4.3313889
4.31313839
4.29382359
4.27346325
4.25208305
4.22971563
4.20640059
4.18218444
4.15712046
4.13126858
4.10469519
4.07747285
4.04968003
4.02140078
3.9927243
3.96374462
3.93456004
3.90527272
3.87598812
3.84681449
3.81786226
3.78924348
3.76107116
3.73345873
3.70651934
3.68036523
3.65510712
3.63085356
3.60771029
3.58577962
3.56515984
3.54594464
3.52822253
3.5120763
3.49758253
3.48481113
3.47382486
3.46467897
3.45742084
3.45208965
3.44871614
3.44732237
3.44792159
3.45051809
3.45510714
3.46167502
3.470199
3.48064751
3.4929802
3.50714822
3.52309443
3.54075369
3.56005321
3.58091298
3.60324614
3.62695949
3.65195397
3.67812526
3.70536428
3.73355784
3.76258925
3.79233894
3.82268515
3.85350459
3.88467311
3.91606637
3.94756053
3.97903293
4.01036272
4.04143156
4.07212417
4.10232903
4.13193891
4.1608514
4.18896951
4.21620208
4.24246427
4.26767793
4.29177201
4.31468283
4.33635439
4.35673854
4.37579521
4.39349246
4.40980662
4.42472225
4.43823212
4.45033712
4.46104615
4.47037589
4.4783506
4.4850018
4.490368
4.49449428
4.49743194
4.49923801
4.49997481
4.49970942
4.4985132
4.49646116
4.49363148
4.49010488
4.485964
4.48129285
4.4761762
4.47069893
4.46494548
4.45899926
4.45294204
4.44685345
4.44081038
4.43488652
4.42915187
4.42367224
4.4185089
4.41371815
4.40935099
4.40545283
4.40206322
4.39921563
4.39693729
4.39524907
4.3941654
4.39369423
4.39383709
4.39458913
4.39593921
4.39787012
4.40035874
4.40337628
4.40688862
4.41085656
4.41523626
4.41997957
4.4250345
4.43034563
4.43585463
4.44150074
4.44722125
4.4529521
4.45862832
4.46418466
4.46955609
4.47467832
4.47948838
4.48392511
4.48792969
4.4914461
4.49442163
4.4968073
4.49855829
4.49963432
4.5
