# vtk DataFile Version 3.0
mCR artificial vessel centerline (millimetres)
ASCII
DATASET POLYDATA
POINTS 155 float
0 0 0
1.25854592 3.26610058 -0.440491071
2.0755102 6.55533528 -0.726428571
2.51288265 9.86267493 -0.879508929
2.63265306 13.1830904 -0.921428571
2.49681122 16.5115525 -0.873883929
2.16734694 19.8430321 -0.758571429
1.70625 23.1725 -0.5971875
1.1755102 26.4949271 -0.411428571
0.637117347 29.8052843 -0.222991071
0.153061224 33.0985423 -0.0535714286
-0.214668367 36.369672 0.0751339286
-0.404081633 39.6136443 0.141428571
-0.353188776 42.82543 0.123616071
0 46 0
-3.12015457 48.5216467 -0.640717229
-5.88808601 51.3119466 -1.12851517
-8.35210832 54.3314282 -1.48475129
-10.5605355 57.5406199 -1.73078303
-12.5616816 60.9000502 -1.88796787
-14.4038606 64.3702475 -1.97766325
-16.1353865 67.9117404 -2.02122664
-17.8045733 71.4850572 -2.04001551
-19.459735 75.0507265 -2.05538729
-21.1491856 78.5692767 -2.08869947
-22.9212392 82.0012362 -2.16130948
-24.8242097 85.3071335 -2.29457481
-26.9064112 88.4474972 -2.50985289
-29.2161576 91.3828556 -2.8285012
3.36513573 48.7374223 -0.168842521
6.37488282 51.7376317 -0.181546196
9.07787349 54.9618736 -0.060177655
11.52274 58.3713937 0.17319647
13.7581144 61.9274374 0.496509549
15.8326292 65.5912502 0.887694949
17.7949164 69.3240777 1.32468604
19.6936083 73.0871655 1.78541619
21.5773372 76.841759 2.24781877
23.4947351 80.5491038 2.68982715
25.4944345 84.1704454 3.08937469
27.6250675 87.6670294 3.42439476
29.9352662 91.0001013 3.67282074
32.4736631 94.1309065 3.81258599
-33.4785915 94.79928 -3.66265023
-37.4232035 98.5262044 -4.34546199
-41.0928151 102.51774 -4.89796602
-44.5302478 106.728 -5.34119187
-47.7783233 111.111095 -5.69616906
-50.8798629 115.621136 -5.98392714
-53.8776884 120.212237 -6.22549566
-56.8146213 124.838508 -6.44190414
-59.7334831 129.454062 -6.65418212
-62.6770954 134.013009 -6.88335915
-65.6882796 138.469463 -7.15046476
-68.8098575 142.777534 -7.4765285
-72.0846505 146.891335 -7.8825799
-75.5554802 150.764978 -8.3896485
-26.7477454 94.4483623 -2.82701995
-24.6911066 97.673546 -2.66896585
-22.9891282 101.034109 -2.37655819
-21.5846973 104.505752 -1.97201626
-20.4207009 108.064178 -1.47755935
-19.440026 111.685089 -0.915406725
-18.5855597 115.344187 -0.307777688
-17.8001889 119.017174 0.323108478
-17.0268008 122.679751 0.95503249
-16.2082823 126.307621 1.56577506
-15.2875206 129.876486 2.1331169
-14.2074025 133.362047 2.63483873
-12.9108152 136.740007 3.04872126
-11.3406457 139.986067 3.35254521
-14.4647302 144.428118 2.51051879
-17.1968344 149.079405 1.81975116
-19.5909121 153.907861 1.25922814
-21.7009169 158.881418 0.807935537
-23.5808024 163.968011 0.444859151
-25.2845223 169.135573 0.148984793
-26.8660301 174.352037 -0.100701727
-28.3792796 179.585336 -0.325214602
-29.8782244 184.803405 -0.545568023
-31.416818 189.974176 -0.782776181
-33.0490142 195.065582 -1.05785327
-34.8287666 200.045557 -1.39181348
-36.8100288 204.882035 -1.805671
-39.0467545 209.542949 -2.32044002
-7.59097743 144.162667 3.16762716
-4.21248676 148.580525 3.13890046
-1.15450659 153.203173 3.24429962
1.63363027 157.994142 3.46175916
4.20259097 162.916962 3.76921359
6.60304268 167.935165 4.14459742
8.88565257 173.012281 4.56584516
11.1010878 178.111843 5.01089134
13.3000155 183.19738 5.45767046
15.5331029 188.232424 5.88411704
17.8510172 193.180506 6.26816559
20.3044254 198.005157 6.58775063
22.9439948 202.669908 6.82080666
25.8203925 207.13829 6.94526822
34.5789119 98.9703436 3.66922737
37.0518549 103.563747 3.6822613
39.8391888 107.943442 3.82957154
42.8876101 112.141755 4.08904183
46.1438157 116.191013 4.43855589
49.5545022 120.12354 4.85599748
53.0663662 123.971662 5.31925033
56.6261045 127.767707 5.80619818
60.1804136 131.544 6.29472477
63.6759903 135.332866 6.76271384
67.0595313 139.166631 7.18804912
70.2777332 143.077623 7.54861437
73.2772928 147.098166 7.82229331
76.0049066 151.260586 7.98696968
32.1678949 98.3001151 2.75638916
31.4326037 102.354347 1.84856735
30.3289047 106.30769 1.06863008
28.9179127 110.174229 0.396086914
27.2607427 113.968051 -0.189552611
25.4185099 117.703243 -0.708778949
23.4523292 121.393892 -1.18208256
21.4233155 125.054084 -1.62995389
19.392584 128.697905 -2.0728834
17.4212495 132.339442 -2.53136155
15.5704272 135.992782 -3.0258788
13.901232 139.672012 -3.57692559
12.4747789 143.391217 -4.20499239
11.352183 147.164485 -4.93056965
8.32737199 151.434247 -5.57484774
5.6982776 155.904485 -6.06614203
3.4103629 160.544468 -6.42581724
1.40909096 165.323465 -6.67523806
-0.360075171 170.210743 -6.8357692
-1.95167242 175.175571 -6.92877539
-3.42023771 180.187217 -6.97562133
-4.820308 185.214951 -6.99767172
-6.20642021 190.22804 -7.01629129
-7.63311129 195.195752 -7.05284474
-9.15491816 200.087357 -7.12869677
-10.8263778 204.872123 -7.26521211
-12.702027 209.519318 -7.48375545
-14.8364029 213.99821 -7.80569152
15.2762461 151.031643 -4.89848761
18.8395497 155.154589 -4.70911757
22.0911892 159.494959 -4.38479666
25.0802603 164.014387 -3.94786201
27.8558584 168.674507 -3.42065075
30.4670791 173.436954 -2.82550002
32.963018 178.263363 -2.18474694
35.3927705 183.115368 -1.52072866
37.8054323 187.954604 -0.855782289
40.2500988 192.742705 -0.212244974
42.7758656 197.441307 0.387546157
45.4318282 202.012042 0.921253971
48.2670822 206.416548 1.36654134
51.3307232 210.616456 1.70107112
LINES 11 176
15 0 1 2 3 4 5 6 7 8 9 10 11 12 13 14
15 14 15 16 17 18 19 20 21 22 23 24 25 26 27 28
15 14 29 30 31 32 33 34 35 36 37 38 39 40 41 42
15 28 43 44 45 46 47 48 49 50 51 52 53 54 55 56
15 28 57 58 59 60 61 62 63 64 65 66 67 68 69 70
15 70 71 72 73 74 75 76 77 78 79 80 81 82 83 84
15 70 85 86 87 88 89 90 91 92 93 94 95 96 97 98
15 42 99 100 101 102 103 104 105 106 107 108 109 110 111 112
15 42 113 114 115 116 117 118 119 120 121 122 123 124 125 126
15 126 127 128 129 130 131 132 133 134 135 136 137 138 139 140
15 126 141 142 143 144 145 146 147 148 149 150 151 152 153 154
POINT_DATA 155
SCALARS Radius float 1
LOOKUP_TABLE default
5.2
5.2
5.2
5.2
5.2
5.2
5.2
5.2
5.2
5.2
5.2
5.2
5.2
5.2
5.2
5.19090379
5.1654344
5.1263207
5.07629155
5.0180758
4.95440233
4.888
4.82159767
4.7579242
4.69970845
4.6496793
4.6105656
4.58509621
4.576
5.19090379
5.1654344
5.1263207
5.07629155
5.0180758
4.95440233
4.888
4.82159767
4.7579242
4.69970845
4.6496793
4.6105656
4.58509621
4.576
4.55495044
4.49601166
4.40549854
4.28972595
4.15500875
4.00766181
3.854
3.70033819
3.55299125
3.41827405
3.30250146
3.21198834
3.15304956
3.132
4.56614577
4.53855394
4.49618076
4.44198251
4.37891545
4.30993586
4.238
4.16606414
4.09708455
4.03401749
3.97981924
3.93744606
3.90985423
3.9
3.88542274
3.84460641
3.7819242
3.70174927
3.60845481
3.50641399
3.4
3.29358601
3.19154519
3.09825073
3.0180758
2.95539359
2.91457726
2.9
3.88542274
3.84460641
3.7819242
3.70174927
3.60845481
3.50641399
3.4
3.29358601
3.19154519
3.09825073
3.0180758
2.95539359
2.91457726
2.9
4.55495044
4.49601166
4.40549854
4.28972595
4.15500875
4.00766181
3.854
3.70033819
3.55299125
3.41827405
3.30250146
3.21198834
3.15304956
3.132
4.56614577
4.53855394
4.49618076
4.44198251
4.37891545
4.30993586
4.238
4.16606414
4.09708455
4.03401749
3.97981924
3.93744606
3.90985423
3.9
3.88542274
3.84460641
3.7819242
3.70174927
3.60845481
3.50641399
3.4
3.29358601
3.19154519
3.09825073
3.0180758
2.95539359
2.91457726
2.9
3.88542274
3.84460641
3.7819242
3.70174927
3.60845481
3.50641399
3.4
3.29358601
3.19154519
3.09825073
3.0180758
2.95539359
2.91457726
2.9
