# vtk DataFile Version 3.0
mCR artificial vessel centerline (millimetres)
ASCII
DATASET POLYDATA
POINTS 43 float
0 0 0
1.25854592 3.26610058 -0.440491071
2.0755102 6.55533528 -0.726428571
2.51288265 9.86267493 -0.879508929
2.63265306 13.1830904 -0.921428571
2.49681122 16.5115525 -0.873883929
2.16734694 19.8430321 -0.758571429
1.70625 23.1725 -0.5971875
1.1755102 26.4949271 -0.411428571
0.637117347 29.8052843 -0.222991071
0.153061224 33.0985423 -0.0535714286
-0.214668367 36.369672 0.0751339286
-0.404081633 39.6136443 0.141428571
-0.353188776 42.82543 0.123616071
0 46 0
-3.12015457 48.5216467 -0.640717229
-5.88808601 51.3119466 -1.12851517
-8.35210832 54.3314282 -1.48475129
-10.5605355 57.5406199 -1.73078303
-12.5616816 60.9000502 -1.88796787
-14.4038606 64.3702475 -1.97766325
-16.1353865 67.9117404 -2.02122664
-17.8045733 71.4850572 -2.04001551
-19.459735 75.0507265 -2.05538729
-21.1491856 78.5692767 -2.08869947
-22.9212392 82.0012362 -2.16130948
-24.8242097 85.3071335 -2.29457481
-26.9064112 88.4474972 -2.50985289
-29.2161576 91.3828556 -2.8285012
-33.4785915 94.79928 -3.66265023
-37.4232035 98.5262044 -4.34546199
-41.0928151 102.51774 -4.89796602
-44.5302478 106.728 -5.34119187
-47.7783233 111.111095 -5.69616906
-50.8798629 115.621136 -5.98392714
-53.8776884 120.212237 -6.22549566
-56.8146213 124.838508 -6.44190414
-59.7334831 129.454062 -6.65418212
-62.6770954 134.013009 -6.88335915
-65.6882796 138.469463 -7.15046476
-68.8098575 142.777534 -7.4765285
-72.0846505 146.891335 -7.8825799
-75.5554802 150.764978 -8.3896485
LINES 1 44
43 0 1 2 3 4 5 6 7 8 9 10 11 12 13 14 15 16 17 18 19 20 21 22 23 24 25 26 27 28 29 30 31 32 33 34 35 36 37 38 39 40 41 42
POINT_DATA 43
SCALARS Radius float 1
LOOKUP_TABLE default
5.2
5.2
5.2
5.2
5.2
5.2
5.2
5.2
5.2
5.2
5.2
5.2
5.2
5.2
5.2
5.19090379
5.1654344
5.1263207
5.07629155
5.0180758
4.95440233
4.888
4.82159767
4.7579242
4.69970845
4.6496793
4.6105656
4.58509621
4.576
4.55495044
4.49601166
4.40549854
4.28972595
4.15500875
4.00766181
3.854
3.70033819
3.55299125
3.41827405
3.30250146
3.21198834
3.15304956
3.132
