# vtk DataFile Version 3.0
mCR artificial vessel centerline (millimetres)
ASCII
DATASET POLYDATA
POINTS 57 float
0 0 0
1.25854592 3.26610058 -0.440491071
2.0755102 6.55533528 -0.726428571
2.51288265 9.86267493 -0.879508929
2.63265306 13.1830904 -0.921428571
2.49681122 16.5115525 -0.873883929
2.16734694 19.8430321 -0.758571429
1.70625 23.1725 -0.5971875
1.1755102 26.4949271 -0.411428571
0.637117347 29.8052843 -0.222991071
0.153061224 33.0985423 -0.0535714286
-0.214668367 36.369672 0.0751339286
-0.404081633 39.6136443 0.141428571
-0.353188776 42.82543 0.123616071
0 46 0
-3.12015457 48.5216467 -0.640717229
-5.88808601 51.3119466 -1.12851517
-8.35210832 54.3314282 -1.48475129
-10.5605355 57.5406199 -1.73078303
-12.5616816 60.9000502 -1.88796787
-14.4038606 64.3702475 -1.97766325
-16.1353865 67.9117404 -2.02122664
-17.8045733 71.4850572 -2.04001551
-19.459735 75.0507265 -2.05538729
-21.1491856 78.5692767 -2.08869947
-22.9212392 82.0012362 -2.16130948
-24.8242097 85.3071335 -2.29457481
-26.9064112 88.4474972 -2.50985289
-29.2161576 91.3828556 -2.8285012
-26.7477454 94.4483623 -2.82701995
-24.6911066 97.673546 -2.66896585
-22.9891282 101.034109 -2.37655819
-21.5846973 104.505752 -1.97201626
-20.4207009 108.064178 -1.47755935
-19.440026 111.685089 -0.915406725
-18.5855597 115.344187 -0.307777688
-17.8001889 119.017174 0.323108478
-17.0268008 122.679751 0.95503249
-16.2082823 126.307621 1.56577506
-15.2875206 129.876486 2.1331169
-14.2074025 133.362047 2.63483873
-12.9108152 136.740007 3.04872126
-11.3406457 139.986067 3.35254521
-7.59097743 144.162667 3.16762716
-4.21248676 148.580525 3.13890046
-1.15450659 153.203173 3.24429962
1.63363027 157.994142 3.46175916
4.20259097 162.916962 3.76921359
6.60304268 167.935165 4.14459742
8.88565257 173.012281 4.56584516
11.1010878 178.111843 5.01089134
13.3000155 183.19738 5.45767046
15.5331029 188.232424 5.88411704
17.8510172 193.180506 6.26816559
20.3044254 198.005157 6.58775063
22.9439948 202.669908 6.82080666
25.8203925 207.13829 6.94526822
LINES 1 58
57 0 1 2 3 4 5 6 7 8 9 10 11 12 13 14 15 16 17 18 19 20 21 22 23 24 25 26 27 28 29 30 31 32 33 34 35 36 37 38 39 40 41 42 43 44 45 46 47 48 49 50 51 52 53 54 55 56
POINT_DATA 57
SCALARS Radius float 1
LOOKUP_TABLE default
5.2
5.2
5.2
5.2
5.2
5.2
5.2
5.2
5.2
5.2
5.2
5.2
5.2
5.2
5.2
5.19090379
5.1654344
5.1263207
5.07629155
5.0180758
4.95440233
4.888
4.82159767
4.7579242
4.69970845
4.6496793
4.6105656
4.58509621
4.576
4.56614577
4.53855394
4.49618076
4.44198251
4.37891545
4.30993586
4.238
4.16606414
4.09708455
4.03401749
3.97981924
3.93744606
3.90985423
3.9
3.88542274
3.84460641
3.7819242
3.70174927
3.60845481
3.50641399
3.4
3.29358601
3.19154519
3.09825073
3.0180758
2.95539359
2.91457726
2.9
