# vtk DataFile Version 3.0
mCR artificial vessel centerline (millimetres)
ASCII
DATASET POLYDATA
POINTS 57 float
0 0 0
1.25854592 3.26610058 -0.440491071
2.0755102 6.55533528 -0.726428571
2.51288265 9.86267493 -0.879508929
2.63265306 13.1830904 -0.921428571
2.49681122 16.5115525 -0.873883929
2.16734694 19.8430321 -0.758571429
1.70625 23.1725 -0.5971875
1.1755102 26.4949271 -0.411428571
0.637117347 29.8052843 -0.222991071
0.153061224 33.0985423 -0.0535714286
-0.214668367 36.369672 0.0751339286
-0.404081633 39.6136443 0.141428571
-0.353188776 42.82543 0.123616071
0 46 0
3.36513573 48.7374223 -0.168842521
6.37488282 51.7376317 -0.181546196
9.07787349 54.9618736 -0.060177655
11.52274 58.3713937 0.17319647
13.7581144 61.9274374 0.496509549
15.8326292 65.5912502 0.887694949
17.7949164 69.3240777 1.32468604
19.6936083 73.0871655 1.78541619
21.5773372 76.841759 2.24781877
23.4947351 80.5491038 2.68982715
25.4944345 84.1704454 3.08937469
27.6250675 87.6670294 3.42439476
29.9352662 91.0001013 3.67282074
32.4736631 94.1309065 3.81258599
32.1678949 98.3001151 2.75638916
31.4326037 102.354347 1.84856735
30.3289047 106.30769 1.06863008
28.9179127 110.174229 0.396086914
27.2607427 113.968051 -0.189552611
25.4185099 117.703243 -0.708778949
23.4523292 121.393892 -1.18208256
21.4233155 125.054084 -1.62995389
19.392584 128.697905 -2.0728834
17.4212495 132.339442 -2.53136155
15.5704272 135.992782 -3.0258788
13.901232 139.672012 -3.57692559
12.4747789 143.391217 -4.20499239
11.352183 147.164485 -4.93056965
15.2762461 151.031643 -4.89848761
18.8395497 155.154589 -4.70911757
22.0911892 159.494959 -4.38479666
25.0802603 164.014387 -3.94786201
27.8558584 168.674507 -3.42065075
30.4670791 173.436954 -2.82550002
32.963018 178.263363 -2.18474694
35.3927705 183.115368 -1.52072866
37.8054323 187.954604 -0.855782289
40.2500988 192.742705 -0.212244974
42.7758656 197.441307 0.387546157
45.4318282 202.012042 0.921253971
48.2670822 206.416548 1.36654134
51.3307232 210.616456 1.70107112
LINES 1 58
57 0 1 2 3 4 5 6 7 8 9 10 11 12 13 14 15 16 17 18 19 20 21 22 23 24 25 26 27 28 29 30 31 32 33 34 35 36 37 38 39 40 41 42 43 44 45 46 47 48 49 50 51 52 53 54 55 56
POINT_DATA 57
SCALARS Radius float 1
LOOKUP_TABLE default
5.2
5.2
5.2
5.2
5.2
5.2
5.2
5.2
5.2
5.2
5.2
5.2
5.2
5.2
5.2
5.19090379
5.1654344
5.1263207
5.07629155
5.0180758
4.95440233
4.888
4.82159767
4.7579242
4.69970845
4.6496793
4.6105656
4.58509621
4.576
4.56614577
4.53855394
4.49618076
4.44198251
4.37891545
4.30993586
4.238
4.16606414
4.09708455
4.03401749
3.97981924
3.93744606
3.90985423
3.9
3.88542274
3.84460641
3.7819242
3.70174927
3.60845481
3.50641399
3.4
3.29358601
3.19154519
3.09825073
3.0180758
2.95539359
2.91457726
2.9
