# vtk DataFile Version 3.0
mCR artificial vessel centerline (millimetres)
ASCII
DATASET POLYDATA
POINTS 43 float
0 0 0
1.25854592 3.26610058 -0.440491071
2.0755102 6.55533528 -0.726428571
2.51288265 9.86267493 -0.879508929
2.63265306 13.1830904 -0.921428571
2.49681122 16.5115525 -0.873883929
2.16734694 19.8430321 -0.758571429
1.70625 23.1725 -0.5971875
1.1755102 26.4949271 -0.411428571
0.637117347 29.8052843 -0.222991071
0.153061224 33.0985423 -0.0535714286
-0.214668367 36.369672 0.0751339286
-0.404081633 39.6136443 0.141428571
-0.353188776 42.82543 0.123616071
0 46 0
3.36513573 48.7374223 -0.168842521
6.37488282 51.7376317 -0.181546196
9.07787349 54.9618736 -0.060177655
11.52274 58.3713937 0.17319647
13.7581144 61.9274374 0.496509549
15.8326292 65.5912502 0.887694949
17.7949164 69.3240777 1.32468604
19.6936083 73.0871655 1.78541619
21.5773372 76.841759 2.24781877
23.4947351 80.5491038 2.68982715
25.4944345 84.1704454 3.08937469
27.6250675 87.6670294 3.42439476
29.9352662 91.0001013 3.67282074
32.4736631 94.1309065 3.81258599
34.5789119 98.9703436 3.66922737
37.0518549 103.563747 3.6822613
39.8391888 107.943442 3.82957154
42.8876101 112.141755 4.08904183
46.1438157 116.191013 4.43855589
49.5545022 120.12354 4.85599748
53.0663662 123.971662 5.31925033
56.6261045 127.767707 5.80619818
60.1804136 131.544 6.29472477
63.6759903 135.332866 6.76271384
67.0595313 139.166631 7.18804912
70.2777332 143.077623 7.54861437
73.2772928 147.098166 7.82229331
76.0049066 151.260586 7.98696968
LINES 1 44
43 0 1 2 3 4 5 6 7 8 9 10 11 12 13 14 15 16 17 18 19 20 21 22 23 24 25 26 27 28 29 30 31 32 33 34 35 36 37 38 39 40 41 42
POINT_DATA 43
SCALARS Radius float 1
LOOKUP_TABLE default
5.2
5.2
5.2
5.2
5.2
5.2
5.2
5.2
5.2
5.2
5.2
5.2
5.2
5.2
5.2
5.19090379
5.1654344
5.1263207
5.07629155
5.0180758
4.95440233
4.888
4.82159767
4.7579242
4.69970845
4.6496793
4.6105656
4.58509621
4.576
4.55495044
4.49601166
4.40549854
4.28972595
4.15500875
4.00766181
3.854
3.70033819
3.55299125
3.41827405
3.30250146
3.21198834
3.15304956
3.132
