# vtk DataFile Version 3.0
mCR artificial vessel centerline (millimetres)
ASCII
DATASET POLYDATA
POINTS 181 float
0 0 0
0 1.66666667 0
0 3.33333333 0
0 5 0
0 6.66666667 0
0 8.33333333 0
0 10 0
0 11.6666667 0
0 13.3333333 0
0 15 0
0 16.6666667 0
0 18.3333333 0
0 20 0
0 21.6666667 0
0 23.3333333 0
0 25 0
0 26.6666667 0
0 28.3333333 0
0 30 0
0 31.6666667 0
0.000757116862 33.3333333 0.000338475716
0.0273905693 35 0.0132875243
0.0916321097 36.6666667 0.0480121956
0.191099971 38.3333333 0.107861528
0.321292568 40 0.195147537
0.475702201 41.6666667 0.311064371
0.645984327 43.3333333 0.455632374
0.822178672 45 0.627668326
0.992977248 46.6666667 0.824782606
1.14603329 48.3333333 1.04340354
1.26830417 50 1.27882866
1.34642054 51.6666667 1.52530207
1.3670733 53.3333333 1.77611666
1.31740956 55 2.0237394
1.18542841 56.6666667 2.25995741
0.960367324 58.3333333 2.47604234
0.633070102 60 2.66292991
0.196327438 61.6666667 2.81141134
-0.354818079 63.3333333 2.9123332
-1.02281024 65 2.9568018
-1.80736756 66.6666667 2.93638833
-2.70532749 68.3333333 2.84333076
-3.7105512 70 2.6707287
-4.81389243 71.6666667 2.41272722
-6.00323247 73.3333333 2.06468618
-7.26358212 75 1.6233314
-8.57725008 76.6666667 1.08688475
-9.92407561 78.3333333 0.45517015
-11.2817221 80 -0.270306819
-12.6260271 81.6666667 -1.08630763
-13.9314022 83.3333333 -1.98783943
-15.1712769 85 -2.96816444
-16.3185768 86.6666667 -4.01884064
-17.3462289 88.3333333 -5.12979352
-18.2276827 90 -6.28941837
-18.9374389 91.6666667 -7.48471178
-19.451574 93.3333333 -8.70143066
-19.7482503 95 -9.92427662
-19.8082023 96.6666667 -11.1371029
-19.6151879 98.3333333 -12.3231406
-19.1563966 100 -13.4652415
-18.4228042 101.666667 -14.5461322
-17.4094675 103.333333 -15.5486771
-16.1157516 105 -16.4561451
-14.5454846 106.666667 -17.2524752
-12.7070353 108.333333 -17.9225387
-10.6133105 110 -18.4523905
-8.28167155 111.666667 -18.8295078
-5.7337699 113.333333 -19.0430119
-2.99530296 115 -19.0838668
-0.0956941664 116.666667 -18.9450551
2.93229846 118.333333 -18.621724
6.05303902 120 -18.1113024
9.22852838 121.666667 -17.4135835
12.4189683 123.333333 -16.5307736
15.5833652 125 -15.4675057
18.680164 126.666667 -14.2308157
21.6679 128.333333 -12.8300828
24.5058579 130 -11.2769349
27.1547272 131.666667 -9.58511798
29.5772404 133.333333 -7.77033453
31.7387845 135 -5.8500501
33.6079738 136.666667 -3.8432729
35.1571734 138.333333 -1.77030876
36.3629657 140 0.347504647
37.2065487 141.666667 2.48808044
37.6740606 143.333333 4.62887759
37.7568251 145 6.74720411
37.451511 146.666667 8.82052356
36.7602046 148.333333 10.8267603
35.6903928 150 12.7445989
34.2548573 151.666667 14.5537725
32.4714812 153.333333 16.235337
30.3629722 155 17.7719254
27.9565061 156.666667 19.1479792
25.2832975 158.333333 20.3499536
22.3781057 160 21.3664923
19.2786834 161.666667 22.188571
16.0251789 163.333333 22.8096054
12.6595017 165 23.2255243
9.22466356 166.666667 23.4348051
5.76410539 168.333333 23.4384719
2.32102267 170 23.2400574
-1.06229913 171.666667 22.8455275
-4.34512761 173.333333 22.2631718
-7.48889393 175 21.5034601
-10.4577603 176.666667 20.5788699
-13.2191349 178.333333 19.5036844
-15.7441257 180 18.2937684
-18.0079259 181.666667 16.9663212
-19.9901247 183.333333 15.5396154
-21.6749395 185 14.0327214
-23.0513648 186.666667 12.4652255
-24.1132382 188.333333 10.8569438
-24.8592225 190 9.22763768
-25.2927044 191.666667 7.59673496
-25.4216152 193.333333 5.98306088
-25.2581755 195 4.40458348
-24.8185717 196.666667 2.87817685
-24.1225698 198.333333 1.41940609
-23.1930755 200 0.042336864
-22.0556495 201.666667 -1.24062753
-20.7379878 203.333333 -2.41887949
-19.2693764 205 -3.48370911
-17.6801328 206.666667 -4.42837363
-16.0010431 208.333333 -5.24813382
-14.262807 210 -5.94025721
-12.4954999 211.666667 -6.50398866
-10.7280626 213.333333 -6.94048945
-8.98782786 215 -7.25274632
-7.30009137 216.666667 -7.4454527
-5.68773584 218.333333 -7.52486456
-4.17091305 220 -7.49863388
-2.76678962 221.666667 -7.375623
-1.48935984 223.333333 -7.16570346
-0.349327744 225 -6.87954313
0.645940669 226.666667 -6.52838557
1.49239587 228.333333 -6.12382578
2.18921581 230 -5.67758622
2.738653 231.666667 -5.20129735
3.14582225 233.333333 -4.70628636
3.41843488 235 -4.20337794
3.56648634 236.666667 -3.70271044
3.60190474 238.333333 -3.21357059
3.538169 240 -2.74424943
3.38990521 241.666667 -2.30192195
3.17247084 243.333333 -1.89255209
2.9015359 245 -1.52082472
2.59267068 246.666667 -1.19010519
2.26094892 248.333333 -0.902427164
1.92057534 250 -0.658508189
1.58454536 251.666667 -0.457792578
1.26434443 253.333333 -0.29852028
0.969693089 255 -0.177820095
0.70834332 256.666667 -0.0918251055
0.485929967 258.333333 -0.0358077961
0.305880269 260 -0.0043319604
0.16938295 261.666667 0.00858178899
0.0754170809 263.333333 0.00928035276
0.0208395784 265 0.00429594012
0.000528887513 266.666667 0.000161061863
0 268.333333 0
0 270 0
0 271.666667 0
0 273.333333 0
0 275 0
0 276.666667 0
0 278.333333 0
0 280 0
0 281.666667 0
0 283.333333 0
0 285 0
0 286.666667 0
0 288.333333 0
0 290 0
0 291.666667 0
0 293.333333 0
0 295 0
0 296.666667 0
0 298.333333 0
0 300 0
LINES 1 182
181 0 1 2 3 4 5 6 7 8 9 10 11 12 13 14 15 16 17 18 19 20 21 22 23 24 25 26 27 28 29 30 31 32 33 34 35 36 37 38 39 40 41 42 43 44 45 46 47 48 49 50 51 52 53 54 55 56 57 58 59 60 61 62 63 64 65 66 67 68 69 70 71 72 73 74 75 76 77 78 79 80 81 82 83 84 85 86 87 88 89 90 91 92 93 94 95 96 97 98 99 100 101 102 103 104 105 106 107 108 109 110 111 112 113 114 115 116 117 118 119 120 121 122 123 124 125 126 127 128 129 130 131 132 133 134 135 136 137 138 139 140 141 142 143 144 145 146 147 148 149 150 151 152 153 154 155 156 157 158 159 160 161 162 163 164 165 166 167 168 169 170 171 172 173 174 175 176 177 178 179 180
POINT_DATA 181
SCALARS Radius float 1
LOOKUP_TABLE default
4.5
4.49999959
4.49999979
4.49999971
4.49999443
4.49997499
4.49992852
4.49983829
4.49968391
4.49944144
4.49908364
4.49858019
4.49789794
4.49700121
4.49585208
4.49441075
4.4926359
4.490485
4.48791475
4.48488149
4.48134151
4.47725157
4.47256924
4.46725335
4.46126436
4.4545648
4.44711966
4.43889672
4.429867
4.42000503
4.40928921
4.39770214
4.38523086
4.37186709
4.35760753
4.34245395
4.32641343
4.30949845
4.29172696
4.27312247
4.25371405
4.23353631
4.21262933
4.19103856
4.16881472
4.1460136
4.12269583
4.0989267
4.07477584
4.05031692
4.02562732
4.00078776
3.9758819
3.95099596
3.92621824
3.9016387
3.87734845
3.85343931
3.8300033
3.80713213
3.78491672
3.76344667
3.74280978
3.72309156
3.70437472
3.68673871
3.67025929
3.65500805
3.64105199
3.62845319
3.61726837
3.60754857
3.59933887
3.5926781
3.58759859
3.58412598
3.58227904
3.58206957
3.58350229
3.58657479
3.59127756
3.59759399
3.60550045
3.61496645
3.62595472
3.63842148
3.65231664
3.66758405
3.68416185
3.70198276
3.72097449
3.7410601
3.76215843
3.78418457
3.80705029
3.83066452
3.85493388
3.87976318
3.90505591
3.93071479
3.95664226
3.98274105
4.00891466
4.03506788
4.06110729
4.08694174
4.11248282
4.13764531
4.1623476
4.18651211
4.21006562
4.23293965
4.25507075
4.27640079
4.29687721
4.31645318
4.33508784
4.35274637
4.36940009
4.38502654
4.39960947
4.41313882
4.42561064
4.43702701
4.44739586
4.45673086
4.46505111
4.47238101
4.47874987
4.48419169
4.48874479
4.49245146
4.49535757
4.49751221
4.49896723
4.49977683
4.49999714
4.49968575
4.49890128
4.49770291
4.49614994
4.49430135
4.49221536
4.48994902
4.48755776
4.48509503
4.48261191
4.48015677
4.47777492
4.47550832
4.4733953
4.47147031
4.46976372
4.46830163
4.46710571
4.46619312
4.46557639
4.46526343
4.46525748
4.46555718
4.46615658
4.46704532
4.4682087
4.46962787
4.47128005
4.47313872
4.47517392
4.47735251
4.47963849
4.4819933
4.48437624
4.48674475
4.48905487
4.49126158
4.49331923
4.49518191
4.49680393
4.49814015
4.49914644
4.49978004
4.5
