# vtk DataFile Version 3.0
mCR artificial vessel centerline (millimetres)
ASCII
DATASET POLYDATA
POINTS 155 float
0 0 0
1.79792274 3.26610058 -0.629272959
2.96501458 6.55533528 -1.0377551
3.58983236 9.86267493 -1.25644133
3.76093294 13.1830904 -1.31632653
3.56687318 16.5115525 -1.24840561
3.09620991 19.8430321 -1.08367347
2.4375 23.1725 -0.853125
1.67930029 26.4949271 -0.587755102
0.910167638 29.8052843 -0.318558673
0.218658892 33.0985423 -0.0765306122
-0.306669096 36.369672 0.107334184
-0.577259475 39.6136443 0.202040816
-0.504555394 42.82543 0.176594388
0 46 0
-3.49319323 48.5792761 -0.973442113
-6.4582326 51.5067593 -1.72936881
-8.96819811 54.7316582 -2.29812619
-11.0961698 58.2031813 -2.71006031
-12.9152277 61.8705372 -2.99551727
-14.4984519 65.6829343 -3.18484315
-15.9189224 69.5895812 -3.30838402
-17.2497191 73.5396865 -3.39648598
-18.5639223 77.4824587 -3.47949511
-19.9346118 81.3671063 -3.58775747
-21.4348677 85.1428379 -3.75161917
-23.13777 88.7588619 -4.00142628
-25.1163988 92.164387 -4.36752488
-27.4438341 95.3086217 -4.88026106
3.56826059 48.6477035 -0.188270599
6.58988269 51.6102915 -0.153964078
9.14052924 54.8416646 0.0714353855
11.2958632 58.2957233 0.456443616
13.1315476 61.9263684 0.969576435
14.7232452 65.6875003 1.57934967
16.1466192 69.5330198 2.25427913
17.4773324 73.4168273 2.96288066
18.7910479 77.2928236 3.67367006
20.1634284 81.1149092 4.35516318
21.6701372 84.8369848 4.97587581
23.386837 88.4129509 5.5043238
25.3891908 91.7967081 5.90902296
27.7528617 94.9421571 6.15848912
-31.5263108 98.3661183 -5.86025614
-35.1039346 101.805184 -6.62254447
-38.246164 105.570037 -7.19749578
-41.0224574 109.604897 -7.61547979
-43.5022732 113.853981 -7.90686623
-45.7550698 118.261509 -8.10202485
-47.8503058 122.7717 -8.23132536
-49.8574394 127.32877 -8.32513751
-51.8459291 131.876941 -8.41383101
-53.8852333 136.360429 -8.52777562
-56.0448104 140.723454 -8.69734105
-58.3941189 144.910234 -8.95289703
-61.0026171 148.864987 -9.32481331
-63.9397635 152.531934 -9.8434596
-24.3268288 98.1879911 -4.7106025
-21.8012088 101.287784 -4.31936813
-19.7847201 104.575182 -3.73809139
-18.1951087 108.017366 -2.99830576
-16.9501205 111.581516 -2.13154469
-15.9675015 115.234816 -1.16934166
-15.1649977 118.944445 -0.143230127
-14.4603549 122.677585 0.915256448
-13.7713192 126.401417 1.9745846
-13.0156365 130.083123 3.00322086
-12.1110528 133.689883 3.96963178
-10.975314 137.188879 4.84228388
-9.52616603 140.547292 5.5896437
-7.68135494 143.732304 6.18017777
-11.350954 147.78145 4.83770985
-14.4659742 152.138649 3.70889456
-17.1031511 156.758024 2.76413128
-19.3392203 161.593694 1.97381938
-21.2509172 166.599781 1.30835823
-22.9149774 171.730404 0.738147222
-24.4081366 176.939683 0.23358572
-25.8071302 182.181741 -0.234926898
-27.1886939 187.410696 -0.696991257
-28.6295631 192.58067 -1.18220798
-30.2064734 197.645782 -1.7201777
-31.9961604 202.560155 -2.34050103
-34.0753596 207.277907 -3.0727786
-36.5208066 211.75316 -3.94661103
-3.95999295 147.200611 5.97455517
-0.798036876 150.960805 5.99182627
1.88190614 154.96961 6.20047124
4.15722897 159.183754 6.56897027
6.10532447 163.55996 7.06580352
7.80358549 168.054955 7.65945118
9.32940491 172.625463 8.31839342
10.7601756 177.22821 9.01111041
12.1732903 181.819922 9.70608235
13.6461421 186.357322 10.3717894
15.2561237 190.797138 10.9767117
17.0806279 195.096094 11.4893295
19.1970478 199.210915 11.878123
21.682776 203.098327 12.1115722
28.9903147 99.8187164 5.6835777
30.7582996 104.353 5.43042848
32.9808695 108.59097 5.36782618
35.5820776 112.578592 5.46455552
38.4859771 116.361827 5.68940123
41.6166211 119.98664 6.01114804
44.8980627 123.498994 6.39858067
48.2543552 126.944851 6.82048385
51.6095516 130.370177 7.24564229
54.8877051 133.820933 7.64284073
58.0128689 137.343083 7.98086389
60.9090962 140.98259 8.2284965
63.50044 144.785419 8.35452327
65.7109536 148.797532 8.32772894
28.339663 98.8312624 4.73065802
28.3050358 102.58904 3.51252256
27.7368503 106.232047 2.47508927
26.7229766 109.776839 1.58936468
25.3512849 113.239974 0.826355342
23.7096454 116.638008 0.157067777
21.8859282 119.987497 -0.447491477
19.9680034 123.304999 -1.01631588
18.0437412 126.607069 -1.57839891
16.2010118 129.910266 -2.16273402
14.5276853 133.231144 -2.79831468
13.1116319 136.586262 -3.51413435
12.0407218 139.992175 -4.3391865
11.402825 143.46544 -5.3024646
7.99504325 147.163634 -6.44695312
5.15201105 151.148758 -7.37562425
2.79540963 155.37812 -8.11849165
0.84692016 159.809023 -8.70556901
-0.771776175 164.398775 -9.16686999
-2.1389982 169.10468 -9.53240826
-3.33306472 173.884045 -9.83219748
-4.43229458 178.694175 -10.0962513
-5.51500658 183.492376 -10.3545835
-6.65951955 188.235953 -10.6372076
-7.94415231 192.882212 -10.9741374
-9.44722367 197.388459 -11.3953864
-11.2470525 201.711999 -11.9309685
-13.4219575 205.810138 -12.6108972
15.2632336 147.326482 -5.33245086
18.5600337 151.471072 -5.13892959
21.3711404 155.856909 -4.75360163
23.7744685 160.441692 -4.20816782
25.8479327 165.18312 -3.534329
27.6694481 170.03889 -2.76378599
29.3169295 174.966702 -1.92823965
30.8682917 179.924254 -1.0593908
32.4014495 184.869245 -0.188940285
33.9943179 189.759373 0.651411057
35.7248118 194.552337 1.42996239
37.6708459 199.205835 2.11501288
39.9103352 203.677567 2.67486168
42.5211945 207.92523 3.07780797
LINES 11 176
15 0 1 2 3 4 5 6 7 8 9 10 11 12 13 14
15 14 15 16 17 18 19 20 21 22 23 24 25 26 27 28
15 14 29 30 31 32 33 34 35 36 37 38 39 40 41 42
15 28 43 44 45 46 47 48 49 50 51 52 53 54 55 56
15 28 57 58 59 60 61 62 63 64 65 66 67 68 69 70
15 70 71 72 73 74 75 76 77 78 79 80 81 82 83 84
15 70 85 86 87 88 89 90 91 92 93 94 95 96 97 98
15 42 99 100 101 102 103 104 105 106 107 108 109 110 111 112
15 42 113 114 115 116 117 118 119 120 121 122 123 124 125 126
15 126 127 128 129 130 131 132 133 134 135 136 137 138 139 140
15 126 141 142 143 144 145 146 147 148 149 150 151 152 153 154
POINT_DATA 155
SCALARS Radius float 1
LOOKUP_TABLE default
5.2
5.2
5.2
5.2
5.2
5.2
5.2
5.2
5.2
5.2
5.2
5.2
5.2
5.2
5.2
5.19090379
5.1654344
5.1263207
5.07629155
5.0180758
4.95440233
4.888
4.82159767
4.7579242
4.69970845
4.6496793
4.6105656
4.58509621
4.576
5.19090379
5.1654344
5.1263207
5.07629155
5.0180758
4.95440233
4.888
4.82159767
4.7579242
4.69970845
4.6496793
4.6105656
4.58509621
4.576
4.55337609
4.49002915
4.39274636
4.26831487
4.12352187
3.96515452
3.8
3.63484548
3.47647813
3.33168513
3.20725364
3.10997085
3.04662391
3.024
4.56614577
4.53855394
4.49618076
4.44198251
4.37891545
4.30993586
4.238
4.16606414
4.09708455
4.03401749
3.97981924
3.93744606
3.90985423
3.9
3.88396501
3.83906706
3.77011662
3.6819242
3.57930029
3.46705539
3.35
3.23294461
3.12069971
3.0180758
2.92988338
2.86093294
2.81603499
2.8
3.88396501
3.83906706
3.77011662
3.6819242
3.57930029
3.46705539
3.35
3.23294461
3.12069971
3.0180758
2.92988338
2.86093294
2.81603499
2.8
4.55337609
4.49002915
4.39274636
4.26831487
4.12352187
3.96515452
3.8
3.63484548
3.47647813
3.33168513
3.20725364
3.10997085
3.04662391
3.024
4.56614577
4.53855394
4.49618076
4.44198251
4.37891545
4.30993586
4.238
4.16606414
4.09708455
4.03401749
3.97981924
3.93744606
3.90985423
3.9
3.88396501
3.83906706
3.77011662
3.6819242
3.57930029
3.46705539
3.35
3.23294461
3.12069971
3.0180758
2.92988338
2.86093294
2.81603499
2.8
3.88396501
3.83906706
3.77011662
3.6819242
3.57930029
3.46705539
3.35
3.23294461
3.12069971
3.0180758
2.92988338
2.86093294
2.81603499
2.8
