# vtk DataFile Version 3.0
mCR artificial vessel centerline (millimetres)
ASCII
DATASET POLYDATA
POINTS 43 float
0 0 0
1.79792274 3.26610058 -0.629272959
2.96501458 6.55533528 -1.0377551
3.58983236 9.86267493 -1.25644133
3.76093294 13.1830904 -1.31632653
3.56687318 16.5115525 -1.24840561
3.09620991 19.8430321 -1.08367347
2.4375 23.1725 -0.853125
1.67930029 26.4949271 -0.587755102
0.910167638 29.8052843 -0.318558673
0.218658892 33.0985423 -0.0765306122
-0.306669096 36.369672 0.107334184
-0.577259475 39.6136443 0.202040816
-0.504555394 42.82543 0.176594388
0 46 0
-3.49319323 48.5792761 -0.973442113
-6.4582326 51.5067593 -1.72936881
-8.96819811 54.7316582 -2.29812619
-11.0961698 58.2031813 -2.71006031
-12.9152277 61.8705372 -2.99551727
-14.4984519 65.6829343 -3.18484315
-15.9189224 69.5895812 -3.30838402
-17.2497191 73.5396865 -3.39648598
-18.5639223 77.4824587 -3.47949511
-19.9346118 81.3671063 -3.58775747
-21.4348677 85.1428379 -3.75161917
-23.13777 88.7588619 -4.00142628
-25.1163988 92.164387 -4.36752488
-27.4438341 95.3086217 -4.88026106
-31.5263108 98.3661183 -5.86025614
-35.1039346 101.805184 -6.62254447
-38.246164 105.570037 -7.19749578
-41.0224574 109.604897 -7.61547979
-43.5022732 113.853981 -7.90686623
-45.7550698 118.261509 -8.10202485
-47.8503058 122.7717 -8.23132536
-49.8574394 127.32877 -8.32513751
-51.8459291 131.876941 -8.41383101
-53.8852333 136.360429 -8.52777562
-56.0448104 140.723454 -8.69734105
-58.3941189 144.910234 -8.95289703
-61.0026171 148.864987 -9.32481331
-63.9397635 152.531934 -9.8434596
LINES 1 44
43 0 1 2 3 4 5 6 7 8 9 10 11 12 13 14 15 16 17 18 19 20 21 22 23 24 25 26 27 28 29 30 31 32 33 34 35 36 37 38 39 40 41 42
POINT_DATA 43
SCALARS Radius float 1
LOOKUP_TABLE default
5.2
5.2
5.2
5.2
5.2
5.2
5.2
5.2
5.2
5.2
5.2
5.2
5.2
5.2
5.2
5.19090379
5.1654344
5.1263207
5.07629155
5.0180758
4.95440233
4.888
4.82159767
4.7579242
4.69970845
4.6496793
4.6105656
4.58509621
4.576
4.55337609
4.49002915
4.39274636
4.26831487
4.12352187
3.96515452
3.8
3.63484548
3.47647813
3.33168513
3.20725364
3.10997085
3.04662391
3.024
