# vtk DataFile Version 3.0
mCR artificial vessel centerline (millimetres)
ASCII
DATASET POLYDATA
POINTS 57 float
0 0 0
1.79792274 3.26610058 -0.629272959
2.96501458 6.55533528 -1.0377551
3.58983236 9.86267493 -1.25644133
3.76093294 13.1830904 -1.31632653
3.56687318 16.5115525 -1.24840561
3.09620991 19.8430321 -1.08367347
2.4375 23.1725 -0.853125
1.67930029 26.4949271 -0.587755102
0.910167638 29.8052843 -0.318558673
0.218658892 33.0985423 -0.0765306122
-0.306669096 36.369672 0.107334184
-0.577259475 39.6136443 0.202040816
-0.504555394 42.82543 0.176594388
0 46 0
-3.49319323 48.5792761 -0.973442113
-6.4582326 51.5067593 -1.72936881
-8.96819811 54.7316582 -2.29812619
-11.0961698 58.2031813 -2.71006031
-12.9152277 61.8705372 -2.99551727
-14.4984519 65.6829343 -3.18484315
-15.9189224 69.5895812 -3.30838402
-17.2497191 73.5396865 -3.39648598
-18.5639223 77.4824587 -3.47949511
-19.9346118 81.3671063 -3.58775747
-21.4348677 85.1428379 -3.75161917
-23.13777 88.7588619 -4.00142628
-25.1163988 92.164387 -4.36752488
-27.4438341 95.3086217 -4.88026106
-24.3268288 98.1879911 -4.7106025
-21.8012088 101.287784 -4.31936813
-19.7847201 104.575182 -3.73809139
-18.1951087 108.017366 -2.99830576
-16.9501205 111.581516 -2.13154469
-15.9675015 115.234816 -1.16934166
-15.1649977 118.944445 -0.143230127
-14.4603549 122.677585 0.915256448
-13.7713192 126.401417 1.9745846
-13.0156365 130.083123 3.00322086
-12.1110528 133.689883 3.96963178
-10.975314 137.188879 4.84228388
-9.52616603 140.547292 5.5896437
-7.68135494 143.732304 6.18017777
-11.350954 147.78145 4.83770985
-14.4659742 152.138649 3.70889456
-17.1031511 156.758024 2.76413128
-19.3392203 161.593694 1.97381938
-21.2509172 166.599781 1.30835823
-22.9149774 171.730404 0.738147222
-24.4081366 176.939683 0.23358572
-25.8071302 182.181741 -0.234926898
-27.1886939 187.410696 -0.696991257
-28.6295631 192.58067 -1.18220798
-30.2064734 197.645782 -1.7201777
-31.9961604 202.560155 -2.34050103
-34.0753596 207.277907 -3.0727786
-36.5208066 211.75316 -3.94661103
LINES 1 58
57 0 1 2 3 4 5 6 7 8 9 10 11 12 13 14 15 16 17 18 19 20 21 22 23 24 25 26 27 28 29 30 31 32 33 34 35 36 37 38 39 40 41 42 43 44 45 46 47 48 49 50 51 52 53 54 55 56
POINT_DATA 57
SCALARS Radius float 1
LOOKUP_TABLE default
5.2
5.2
5.2
5.2
5.2
5.2
5.2
5.2
5.2
5.2
5.2
5.2
5.2
5.2
5.2
5.19090379
5.1654344
5.1263207
5.07629155
5.0180758
4.95440233
4.888
4.82159767
4.7579242
4.69970845
4.6496793
4.6105656
4.58509621
4.576
4.56614577
4.53855394
4.49618076
4.44198251
4.37891545
4.30993586
4.238
4.16606414
4.09708455
4.03401749
3.97981924
3.93744606
3.90985423
3.9
3.88396501
3.83906706
3.77011662
3.6819242
3.57930029
3.46705539
3.35
3.23294461
3.12069971
3.0180758
2.92988338
2.86093294
2.81603499
2.8
