# vtk DataFile Version 3.0
mCR artificial vessel centerline (millimetres)
ASCII
DATASET POLYDATA
POINTS 43 float
0 0 0
1.79792274 3.26610058 -0.629272959
2.96501458 6.55533528 -1.0377551
3.58983236 9.86267493 -1.25644133
3.76093294 13.1830904 -1.31632653
3.56687318 16.5115525 -1.24840561
3.09620991 19.8430321 -1.08367347
2.4375 23.1725 -0.853125
1.67930029 26.4949271 -0.587755102
0.910167638 29.8052843 -0.318558673
0.218658892 33.0985423 -0.0765306122
-0.306669096 36.369672 0.107334184
-0.577259475 39.6136443 0.202040816
-0.504555394 42.82543 0.176594388
0 46 0
3.56826059 48.6477035 -0.188270599
6.58988269 51.6102915 -0.153964078
9.14052924 54.8416646 0.0714353855
11.2958632 58.2957233 0.456443616
13.1315476 61.9263684 0.969576435
14.7232452 65.6875003 1.57934967
16.1466192 69.5330198 2.25427913
17.4773324 73.4168273 2.96288066
18.7910479 77.2928236 3.67367006
20.1634284 81.1149092 4.35516318
21.6701372 84.8369848 4.97587581
23.386837 88.4129509 5.5043238
25.3891908 91.7967081 5.90902296
27.7528617 94.9421571 6.15848912
28.9903147 99.8187164 5.6835777
30.7582996 104.353 5.43042848
32.9808695 108.59097 5.36782618
35.5820776 112.578592 5.46455552
38.4859771 116.361827 5.68940123
41.6166211 119.98664 6.01114804
44.8980627 123.498994 6.39858067
48.2543552 126.944851 6.82048385
51.6095516 130.370177 7.24564229
54.8877051 133.820933 7.64284073
58.0128689 137.343083 7.98086389
60.9090962 140.98259 8.2284965
63.50044 144.785419 8.35452327
65.7109536 148.797532 8.32772894
LINES 1 44
43 0 1 2 3 4 5 6 7 8 9 10 11 12 13 14 15 16 17 18 19 20 21 22 23 24 25 26 27 28 29 30 31 32 33 34 35 36 37 38 39 40 41 42
POINT_DATA 43
SCALARS Radius float 1
LOOKUP_TABLE default
5.2
5.2
5.2
5.2
5.2
5.2
5.2
5.2
5.2
5.2
5.2
5.2
5.2
5.2
5.2
5.19090379
5.1654344
5.1263207
5.07629155
5.0180758
4.95440233
4.888
4.82159767
4.7579242
4.69970845
4.6496793
4.6105656
4.58509621
4.576
4.55337609
4.49002915
4.39274636
4.26831487
4.12352187
3.96515452
3.8
3.63484548
3.47647813
3.33168513
3.20725364
3.10997085
3.04662391
3.024
