# vtk DataFile Version 3.0
mCR artificial vessel centerline (millimetres)
ASCII
DATASET POLYDATA
POINTS 57 float
0 0 0
1.79792274 3.26610058 -0.629272959
2.96501458 6.55533528 -1.0377551
3.58983236 9.86267493 -1.25644133
3.76093294 13.1830904 -1.31632653
3.56687318 16.5115525 -1.24840561
3.09620991 19.8430321 -1.08367347
2.4375 23.1725 -0.853125
1.67930029 26.4949271 -0.587755102
0.910167638 29.8052843 -0.318558673
0.218658892 33.0985423 -0.0765306122
-0.306669096 36.369672 0.107334184
-0.577259475 39.6136443 0.202040816
-0.504555394 42.82543 0.176594388
0 46 0
3.56826059 48.6477035 -0.188270599
6.58988269 51.6102915 -0.153964078
9.14052924 54.8416646 0.0714353855
11.2958632 58.2957233 0.456443616
13.1315476 61.9263684 0.969576435
14.7232452 65.6875003 1.57934967
16.1466192 69.5330198 2.25427913
17.4773324 73.4168273 2.96288066
18.7910479 77.2928236 3.67367006
20.1634284 81.1149092 4.35516318
21.6701372 84.8369848 4.97587581
23.386837 88.4129509 5.5043238
25.3891908 91.7967081 5.90902296
27.7528617 94.9421571 6.15848912
28.339663 98.8312624 4.73065802
28.3050358 102.58904 3.51252256
27.7368503 106.232047 2.47508927
26.7229766 109.776839 1.58936468
25.3512849 113.239974 0.826355342
23.7096454 116.638008 0.157067777
21.8859282 119.987497 -0.447491477
19.9680034 123.304999 -1.01631588
18.0437412 126.607069 -1.57839891
16.2010118 129.910266 -2.16273402
14.5276853 133.231144 -2.79831468
13.1116319 136.586262 -3.51413435
12.0407218 139.992175 -4.3391865
11.402825 143.46544 -5.3024646
15.2632336 147.326482 -5.33245086
18.5600337 151.471072 -5.13892959
21.3711404 155.856909 -4.75360163
23.7744685 160.441692 -4.20816782
25.8479327 165.18312 -3.534329
27.6694481 170.03889 -2.76378599
29.3169295 174.966702 -1.92823965
30.8682917 179.924254 -1.0593908
32.4014495 184.869245 -0.188940285
33.9943179 189.759373 0.651411057
35.7248118 194.552337 1.42996239
37.6708459 199.205835 2.11501288
39.9103352 203.677567 2.67486168
42.5211945 207.92523 3.07780797
LINES 1 58
57 0 1 2 3 4 5 6 7 8 9 10 11 12 13 14 15 16 17 18 19 20 21 22 23 24 25 26 27 28 29 30 31 32 33 34 35 36 37 38 39 40 41 42 43 44 45 46 47 48 49 50 51 52 53 54 55 56
POINT_DATA 57
SCALARS Radius float 1
LOOKUP_TABLE default
5.2
5.2
5.2
5.2
5.2
5.2
5.2
5.2
5.2
5.2
5.2
5.2
5.2
5.2
5.2
5.19090379
5.1654344
5.1263207
5.07629155
5.0180758
4.95440233
4.888
4.82159767
4.7579242
4.69970845
4.6496793
4.6105656
4.58509621
4.576
4.56614577
4.53855394
4.49618076
4.44198251
4.37891545
4.30993586
4.238
4.16606414
4.09708455
4.03401749
3.97981924
3.93744606
3.90985423
3.9
3.88396501
3.83906706
3.77011662
3.6819242
3.57930029
3.46705539
3.35
3.23294461
3.12069971
3.0180758
2.92988338
2.86093294
2.81603499
2.8
