# vtk DataFile Version 3.0
mCR artificial vessel centerline (millimetres)
ASCII
DATASET POLYDATA
POINTS 155 float
0 0 0
0.359584548 3.26610058 -0.125854592
0.593002915 6.55533528 -0.20755102
0.717966472 9.86267493 -0.251288265
0.752186589 13.1830904 -0.263265306
0.713374636 16.5115525 -0.249681122
0.619241983 19.8430321 -0.216734694
0.4875 23.1725 -0.170625
0.335860058 26.4949271 -0.11755102
0.182033528 29.8052843 -0.0637117347
0.0437317784 33.0985423 -0.0153061224
-0.0613338192 36.369672 0.0214668367
-0.115451895 39.6136443 0.0404081633
-0.100911079 42.82543 0.0353188776
0 46 0
-1.47909824 48.9649985 -0.299648933
-2.84876263 51.9978405 -0.556433156
-4.12373154 55.0873134 -0.776275177
-5.31874338 58.2222044 -0.965097505
-6.44853654 61.3913009 -1.12882265
-7.5278494 64.5833902 -1.27337311
-8.57142036 67.7872598 -1.40467141
-9.5939878 70.991697 -1.52864005
-10.6102901 74.185489 -1.65120153
-11.6350657 77.3574233 -1.77827837
-12.6830529 80.4962873 -1.91579308
-13.7689902 83.5908682 -2.06966816
-14.9076159 86.6299534 -2.24582612
-16.1136685 89.6023302 -2.45018946
1.61308546 49.5755051 -0.040785714
3.11559265 53.2173614 -0.0368214012
4.52235074 56.9142414 0.00556448594
5.84818887 60.654818 0.0800434952
7.10793618 64.4277638 0.180287174
8.31642182 68.2217514 0.299967071
9.48847494 72.0254537 0.432754732
10.6389247 75.8275433 0.572321706
11.7826002 79.6166928 0.712339541
12.9343306 83.3815751 0.846479783
14.1089451 87.1108628 0.968413982
15.3212728 90.7932286 1.07181368
16.5861429 94.4173452 1.15035044
17.9183845 97.9718853 1.19769579
-18.6178875 93.7609906 -2.50023477
-21.0246457 98.0065256 -2.50559047
-23.3464342 102.324384 -2.47257149
-25.5957443 106.700013 -2.40749277
-27.7850673 111.118863 -2.31666922
-29.9268944 115.566382 -2.20641578
-32.033717 120.028017 -2.08304737
-34.1180261 124.489219 -1.95287892
-36.1923132 128.935434 -1.82222536
-38.2690695 133.352112 -1.69740161
-40.3607862 137.724702 -1.5847226
-42.4799546 142.038651 -1.49050325
-44.6390659 146.279408 -1.4210585
-46.8506114 150.432422 -1.38270328
-15.012228 93.3521133 -2.27239924
-14.0299703 97.1497719 -2.04843696
-13.1505717 100.986507 -1.78494974
-12.3577084 104.85352 -1.48858468
-11.6350567 108.742013 -1.1659889
-10.9662929 112.643186 -0.823809518
-10.3350931 116.548241 -0.468693641
-9.72513373 120.44838 -0.107288386
-9.12009096 124.334803 0.253759135
-8.50364108 128.198712 0.607801809
-7.85946033 132.031308 0.948192522
-7.17122497 135.823793 1.26828416
-6.42261126 139.567368 1.56142961
-5.59729545 143.253234 1.82098176
-7.30687184 147.661583 1.49595834
-8.90591079 152.140254 1.21364225
-10.4091841 156.67691 0.968146878
-11.8314634 161.259215 0.753585621
-13.1875206 165.874832 0.56407187
-14.4921275 170.511428 0.393719016
-15.7600557 175.156664 0.236640452
-17.006077 179.798205 0.0869495692
-18.2449633 184.423716 -0.0612402406
-19.4914862 189.020861 -0.213815585
-20.7604175 193.577303 -0.376663073
-22.0665291 198.080706 -0.555669312
-23.4245926 202.518735 -0.75672091
-24.8493798 206.879053 -0.985704475
-3.82654853 147.867911 1.60300701
-2.16622176 152.553326 1.42853007
-0.601592724 157.296975 1.29149493
0.882060985 162.086352 1.18584555
2.29946178 166.908951 1.10552593
3.66533208 171.752266 1.04448004
4.99439429 176.603793 0.996651881
6.30137084 181.451025 0.955985423
7.60098412 186.281456 0.916424651
8.90795655 191.082582 0.871913548
10.2370106 195.841897 0.816396097
11.6028685 200.546896 0.743816281
13.0202529 205.185071 0.648118082
14.5038861 209.743919 0.523245484
19.5015007 101.930903 1.1460027
21.2105339 105.859562 1.1389862
23.0267694 109.760052 1.1703341
24.9314924 113.634566 1.23373419
26.9059883 117.485293 1.32287427
28.9315422 121.314427 1.43144214
30.9894396 125.124159 1.55312561
33.0609655 128.916678 1.68161247
35.1274055 132.694178 1.81059053
37.1700446 136.45885 1.93374758
39.1701682 140.212885 2.04477142
41.1090615 143.958474 2.13734987
42.9680098 147.697808 2.2051707
44.7282984 151.43308 2.24192174
17.5977039 101.308078 0.922287078
17.1482826 104.643888 0.689931999
16.588561 107.977585 0.494668271
15.9369796 111.307441 0.330533618
15.2119787 114.631724 0.191565762
14.4319989 117.948707 0.071802425
13.6154804 121.25666 -0.0347186704
12.7808639 124.553853 -0.133959802
11.9465896 127.838557 -0.231883247
11.1310981 131.109043 -0.334451283
10.3528298 134.363581 -0.447626189
9.630225 137.600441 -0.57737024
8.98172429 140.817895 -0.729645716
8.42576805 144.014213 -0.910414893
6.64224214 148.460153 -1.14487205
4.96849422 152.97738 -1.33595193
3.38989983 157.553401 -1.48968461
1.89183452 162.175722 -1.61210021
0.459673838 166.831851 -1.70922883
-0.921206675 171.509294 -1.78710057
-2.26543147 176.195558 -1.85174554
-3.587625 180.87815 -1.90919382
-4.90241173 185.544578 -1.96547554
-6.2244161 190.182347 -2.02662078
-7.56826257 194.778966 -2.09865966
-8.9485756 199.32194 -2.18762227
-10.3799796 203.798777 -2.29953872
-11.8770991 208.196984 -2.4404391
10.4394445 148.382769 -0.932709805
12.3464508 152.826348 -0.910123531
14.1608472 157.33197 -0.849013022
15.8966942 161.886652 -0.75573523
17.5680521 166.477412 -0.636647105
19.1889814 171.091267 -0.498105598
20.7735424 175.715237 -0.346467661
22.3357956 180.336338 -0.188090245
23.8898012 184.941589 -0.0293303003
25.4496198 189.518007 0.123455222
27.0293116 194.052611 0.26390937
28.6429371 198.532418 0.385675193
30.3045567 202.944447 0.48239574
32.0282307 207.275715 0.54771406
LINES 11 176
15 0 1 2 3 4 5 6 7 8 9 10 11 12 13 14
15 14 15 16 17 18 19 20 21 22 23 24 25 26 27 28
15 14 29 30 31 32 33 34 35 36 37 38 39 40 41 42
15 28 43 44 45 46 47 48 49 50 51 52 53 54 55 56
15 28 57 58 59 60 61 62 63 64 65 66 67 68 69 70
15 70 71 72 73 74 75 76 77 78 79 80 81 82 83 84
15 70 85 86 87 88 89 90 91 92 93 94 95 96 97 98
15 42 99 100 101 102 103 104 105 106 107 108 109 110 111 112
15 42 113 114 115 116 117 118 119 120 121 122 123 124 125 126
15 126 127 128 129 130 131 132 133 134 135 136 137 138 139 140
15 126 141 142 143 144 145 146 147 148 149 150 151 152 153 154
POINT_DATA 155
SCALARS Radius float 1
LOOKUP_TABLE default
5
5
5
5
5
5
5
5
5
5
5
5
5
5
5
4.99125364
4.96676385
4.92915452
4.88104956
4.82507289
4.7638484
4.7
4.6361516
4.57492711
4.51895044
4.47084548
4.43323615
4.40874636
4.4
4.99125364
4.96676385
4.92915452
4.88104956
4.82507289
4.7638484
4.7
4.6361516
4.57492711
4.51895044
4.47084548
4.43323615
4.40874636
4.4
4.38938776
4.35967347
4.31404082
4.25567347
4.1877551
4.11346939
4.036
3.95853061
3.8842449
3.81632653
3.75795918
3.71232653
3.68261224
3.672
4.39052478
4.36399417
4.32325073
4.27113703
4.21049563
4.1441691
4.075
4.0058309
3.93950437
3.87886297
3.82674927
3.78600583
3.75947522
3.75
3.74489796
3.73061224
3.70867347
3.68061224
3.64795918
3.6122449
3.575
3.5377551
3.50204082
3.46938776
3.44132653
3.41938776
3.40510204
3.4
3.74489796
3.73061224
3.70867347
3.68061224
3.64795918
3.6122449
3.575
3.5377551
3.50204082
3.46938776
3.44132653
3.41938776
3.40510204
3.4
4.38938776
4.35967347
4.31404082
4.25567347
4.1877551
4.11346939
4.036
3.95853061
3.8842449
3.81632653
3.75795918
3.71232653
3.68261224
3.672
4.39052478
4.36399417
4.32325073
4.27113703
4.21049563
4.1441691
4.075
4.0058309
3.93950437
3.87886297
3.82674927
3.78600583
3.75947522
3.75
3.74489796
3.73061224
3.70867347
3.68061224
3.64795918
3.6122449
3.575
3.5377551
3.50204082
3.46938776
3.44132653
3.41938776
3.40510204
3.4
3.74489796
3.73061224
3.70867347
3.68061224
3.64795918
3.6122449
3.575
3.5377551
3.50204082
3.46938776
3.44132653
3.41938776
3.40510204
3.4
