# vtk DataFile Version 3.0
mCR artificial vessel centerline (millimetres)
ASCII
DATASET POLYDATA
POINTS 57 float
0 0 0
0.359584548 3.26610058 -0.125854592
0.593002915 6.55533528 -0.20755102
0.717966472 9.86267493 -0.251288265
0.752186589 13.1830904 -0.263265306
0.713374636 16.5115525 -0.249681122
0.619241983 19.8430321 -0.216734694
0.4875 23.1725 -0.170625
0.335860058 26.4949271 -0.11755102
0.182033528 29.8052843 -0.0637117347
0.0437317784 33.0985423 -0.0153061224
-0.0613338192 36.369672 0.0214668367
-0.115451895 39.6136443 0.0404081633
-0.100911079 42.82543 0.0353188776
0 46 0
-1.47909824 48.9649985 -0.299648933
-2.84876263 51.9978405 -0.556433156
-4.12373154 55.0873134 -0.776275177
-5.31874338 58.2222044 -0.965097505
-6.44853654 61.3913009 -1.12882265
-7.5278494 64.5833902 -1.27337311
-8.57142036 67.7872598 -1.40467141
-9.5939878 70.991697 -1.52864005
-10.6102901 74.185489 -1.65120153
-11.6350657 77.3574233 -1.77827837
-12.6830529 80.4962873 -1.91579308
-13.7689902 83.5908682 -2.06966816
-14.9076159 86.6299534 -2.24582612
-16.1136685 89.6023302 -2.45018946
-15.012228 93.3521133 -2.27239924
-14.0299703 97.1497719 -2.04843696
-13.1505717 100.986507 -1.78494974
-12.3577084 104.85352 -1.48858468
-11.6350567 108.742013 -1.1659889
-10.9662929 112.643186 -0.823809518
-10.3350931 116.548241 -0.468693641
-9.72513373 120.44838 -0.107288386
-9.12009096 124.334803 0.253759135
-8.50364108 128.198712 0.607801809
-7.85946033 132.031308 0.948192522
-7.17122497 135.823793 1.26828416
-6.42261126 139.567368 1.56142961
-5.59729545 143.253234 1.82098176
-3.82654853 147.867911 1.60300701
-2.16622176 152.553326 1.42853007
-0.601592724 157.296975 1.29149493
0.882060985 162.086352 1.18584555
2.29946178 166.908951 1.10552593
3.66533208 171.752266 1.04448004
4.99439429 176.603793 0.996651881
6.30137084 181.451025 0.955985423
7.60098412 186.281456 0.916424651
8.90795655 191.082582 0.871913548
10.2370106 195.841897 0.816396097
11.6028685 200.546896 0.743816281
13.0202529 205.185071 0.648118082
14.5038861 209.743919 0.523245484
LINES 1 58
57 0 1 2 3 4 5 6 7 8 9 10 11 12 13 14 15 16 17 18 19 20 21 22 23 24 25 26 27 28 29 30 31 32 33 34 35 36 37 38 39 40 41 42 43 44 45 46 47 48 49 50 51 52 53 54 55 56
POINT_DATA 57
SCALARS Radius float 1
LOOKUP_TABLE default
5
5
5
5
5
5
5
5
5
5
5
5
5
5
5
4.99125364
4.96676385
4.92915452
4.88104956
4.82507289
4.7638484
4.7
4.6361516
4.57492711
4.51895044
4.47084548
4.43323615
4.40874636
4.4
4.39052478
4.36399417
4.32325073
4.27113703
4.21049563
4.1441691
4.075
4.0058309
3.93950437
3.87886297
3.82674927
3.78600583
3.75947522
3.75
3.74489796
3.73061224
3.70867347
3.68061224
3.64795918
3.6122449
3.575
3.5377551
3.50204082
3.46938776
3.44132653
3.41938776
3.40510204
3.4
