# vtk DataFile Version 3.0
mCR artificial vessel centerline (millimetres)
ASCII
DATASET POLYDATA
POINTS 57 float
0 0 0
0.359584548 3.26610058 -0.125854592
0.593002915 6.55533528 -0.20755102
0.717966472 9.86267493 -0.251288265
0.752186589 13.1830904 -0.263265306
0.713374636 16.5115525 -0.249681122
0.619241983 19.8430321 -0.216734694
0.4875 23.1725 -0.170625
0.335860058 26.4949271 -0.11755102
0.182033528 29.8052843 -0.0637117347
0.0437317784 33.0985423 -0.0153061224
-0.0613338192 36.369672 0.0214668367
-0.115451895 39.6136443 0.0404081633
-0.100911079 42.82543 0.0353188776
0 46 0
1.61308546 49.5755051 -0.040785714
3.11559265 53.2173614 -0.0368214012
4.52235074 56.9142414 0.00556448594
5.84818887 60.654818 0.0800434952
7.10793618 64.4277638 0.180287174
8.31642182 68.2217514 0.299967071
9.48847494 72.0254537 0.432754732
10.6389247 75.8275433 0.572321706
11.7826002 79.6166928 0.712339541
12.9343306 83.3815751 0.846479783
14.1089451 87.1108628 0.968413982
15.3212728 90.7932286 1.07181368
16.5861429 94.4173452 1.15035044
17.9183845 97.9718853 1.19769579
17.5977039 101.308078 0.922287078
17.1482826 104.643888 0.689931999
16.588561 107.977585 0.494668271
15.9369796 111.307441 0.330533618
15.2119787 114.631724 0.191565762
14.4319989 117.948707 0.071802425
13.6154804 121.25666 -0.0347186704
12.7808639 124.553853 -0.133959802
11.9465896 127.838557 -0.231883247
11.1310981 131.109043 -0.334451283
10.3528298 134.363581 -0.447626189
9.630225 137.600441 -0.57737024
8.98172429 140.817895 -0.729645716
8.42576805 144.014213 -0.910414893
6.64224214 148.460153 -1.14487205
4.96849422 152.97738 -1.33595193
3.38989983 157.553401 -1.48968461
1.89183452 162.175722 -1.61210021
0.459673838 166.831851 -1.70922883
-0.921206675 171.509294 -1.78710057
-2.26543147 176.195558 -1.85174554
-3.587625 180.87815 -1.90919382
-4.90241173 185.544578 -1.96547554
-6.2244161 190.182347 -2.02662078
-7.56826257 194.778966 -2.09865966
-8.9485756 199.32194 -2.18762227
-10.3799796 203.798777 -2.29953872
-11.8770991 208.196984 -2.4404391
LINES 1 58
57 0 1 2 3 4 5 6 7 8 9 10 11 12 13 14 15 16 17 18 19 20 21 22 23 24 25 26 27 28 29 30 31 32 33 34 35 36 37 38 39 40 41 42 43 44 45 46 47 48 49 50 51 52 53 54 55 56
POINT_DATA 57
SCALARS Radius float 1
LOOKUP_TABLE default
5
5
5
5
5
5
5
5
5
5
5
5
5
5
5
4.99125364
4.96676385
4.92915452
4.88104956
4.82507289
4.7638484
4.7
4.6361516
4.57492711
4.51895044
4.47084548
4.43323615
4.40874636
4.4
4.39052478
4.36399417
4.32325073
4.27113703
4.21049563
4.1441691
4.075
4.0058309
3.93950437
3.87886297
3.82674927
3.78600583
3.75947522
3.75
3.74489796
3.73061224
3.70867347
3.68061224
3.64795918
3.6122449
3.575
3.5377551
3.50204082
3.46938776
3.44132653
3.41938776
3.40510204
3.4
