# vtk DataFile Version 3.0
mCR artificial vessel centerline (millimetres)
ASCII
DATASET POLYDATA
POINTS 43 float
0 0 0
0.359584548 3.26610058 -0.125854592
0.593002915 6.55533528 -0.20755102
0.717966472 9.86267493 -0.251288265
0.752186589 13.1830904 -0.263265306
0.713374636 16.5115525 -0.249681122
0.619241983 19.8430321 -0.216734694
0.4875 23.1725 -0.170625
0.335860058 26.4949271 -0.11755102
0.182033528 29.8052843 -0.0637117347
0.0437317784 33.0985423 -0.0153061224
-0.0613338192 36.369672 0.0214668367
-0.115451895 39.6136443 0.0404081633
-0.100911079 42.82543 0.0353188776
0 46 0
1.61308546 49.5755051 -0.040785714
3.11559265 53.2173614 -0.0368214012
4.52235074 56.9142414 0.00556448594
5.84818887 60.654818 0.0800434952
7.10793618 64.4277638 0.180287174
8.31642182 68.2217514 0.299967071
9.48847494 72.0254537 0.432754732
10.6389247 75.8275433 0.572321706
11.7826002 79.6166928 0.712339541
12.9343306 83.3815751 0.846479783
14.1089451 87.1108628 0.968413982
15.3212728 90.7932286 1.07181368
16.5861429 94.4173452 1.15035044
17.9183845 97.9718853 1.19769579
19.5015007 101.930903 1.1460027
21.2105339 105.859562 1.1389862
23.0267694 109.760052 1.1703341
24.9314924 113.634566 1.23373419
26.9059883 117.485293 1.32287427
28.9315422 121.314427 1.43144214
30.9894396 125.124159 1.55312561
33.0609655 128.916678 1.68161247
35.1274055 132.694178 1.81059053
37.1700446 136.45885 1.93374758
39.1701682 140.212885 2.04477142
41.1090615 143.958474 2.13734987
42.9680098 147.697808 2.2051707
44.7282984 151.43308 2.24192174
LINES 1 44
43 0 1 2 3 4 5 6 7 8 9 10 11 12 13 14 15 16 17 18 19 20 21 22 23 24 25 26 27 28 29 30 31 32 33 34 35 36 37 38 39 40 41 42
POINT_DATA 43
SCALARS Radius float 1
LOOKUP_TABLE default
5
5
5
5
5
5
5
5
5
5
5
5
5
5
5
4.99125364
4.96676385
4.92915452
4.88104956
4.82507289
4.7638484
4.7
4.6361516
4.57492711
4.51895044
4.47084548
4.43323615
4.40874636
4.4
4.38938776
4.35967347
4.31404082
4.25567347
4.1877551
4.11346939
4.036
3.95853061
3.8842449
3.81632653
3.75795918
3.71232653
3.68261224
3.672
