# vtk DataFile Version 3.0
mCR artificial vessel centerline (millimetres)
ASCII
DATASET POLYDATA
POINTS 43 float
0 0 0
0.359584548 3.26610058 -0.125854592
0.593002915 6.55533528 -0.20755102
0.717966472 9.86267493 -0.251288265
0.752186589 13.1830904 -0.263265306
0.713374636 16.5115525 -0.249681122
0.619241983 19.8430321 -0.216734694
0.4875 23.1725 -0.170625
0.335860058 26.4949271 -0.11755102
0.182033528 29.8052843 -0.0637117347
0.0437317784 33.0985423 -0.0153061224
-0.0613338192 36.369672 0.0214668367
-0.115451895 39.6136443 0.0404081633
-0.100911079 42.82543 0.0353188776
0 46 0
-1.47909824 48.9649985 -0.299648933
-2.84876263 51.9978405 -0.556433156
-4.12373154 55.0873134 -0.776275177
-5.31874338 58.2222044 -0.965097505
-6.44853654 61.3913009 -1.12882265
-7.5278494 64.5833902 -1.27337311
-8.57142036 67.7872598 -1.40467141
-9.5939878 70.991697 -1.52864005
-10.6102901 74.185489 -1.65120153
-11.6350657 77.3574233 -1.77827837
-12.6830529 80.4962873 -1.91579308
-13.7689902 83.5908682 -2.06966816
-14.9076159 86.6299534 -2.24582612
-16.1136685 89.6023302 -2.45018946
-18.6178875 93.7609906 -2.50023477
-21.0246457 98.0065256 -2.50559047
-23.3464342 102.324384 -2.47257149
-25.5957443 106.700013 -2.40749277
-27.7850673 111.118863 -2.31666922
-29.9268944 115.566382 -2.20641578
-32.033717 120.028017 -2.08304737
-34.1180261 124.489219 -1.95287892
-36.1923132 128.935434 -1.82222536
-38.2690695 133.352112 -1.69740161
-40.3607862 137.724702 -1.5847226
-42.4799546 142.038651 -1.49050325
-44.6390659 146.279408 -1.4210585
-46.8506114 150.432422 -1.38270328
LINES 1 44
43 0 1 2 3 4 5 6 7 8 9 10 11 12 13 14 15 16 17 18 19 20 21 22 23 24 25 26 27 28 29 30 31 32 33 34 35 36 37 38 39 40 41 42
POINT_DATA 43
SCALARS Radius float 1
LOOKUP_TABLE default
5
5
5
5
5
5
5
5
5
5
5
5
5
5
5
4.99125364
4.96676385
4.92915452
4.88104956
4.82507289
4.7638484
4.7
4.6361516
4.57492711
4.51895044
4.47084548
4.43323615
4.40874636
4.4
4.38938776
4.35967347
4.31404082
4.25567347
4.1877551
4.11346939
4.036
3.95853061
3.8842449
3.81632653
3.75795918
3.71232653
3.68261224
3.672
