# vtk DataFile Version 3.0
mCR artificial vessel centerline (millimetres)
ASCII
DATASET POLYDATA
POINTS 155 float
0 0 0
0.719169096 3.26610058 -0.251709184
1.18600583 6.55533528 -0.415102041
1.43593294 9.86267493 -0.502576531
1.50437318 13.1830904 -0.526530612
1.42674927 16.5115525 -0.499362245
1.23848397 19.8430321 -0.433469388
0.975 23.1725 -0.34125
0.671720117 26.4949271 -0.235102041
0.364067055 29.8052843 -0.127423469
0.0874635569 33.0985423 -0.0306122449
-0.122667638 36.369672 0.0429336735
-0.23090379 39.6136443 0.0808163265
-0.201822157 42.82543 0.0706377551
0 46 0
-2.13803192 48.7472518 -0.461397797
-4.06219255 51.6316524 -0.836134
-5.80168819 54.6322707 -1.13625964
-7.38572512 57.7281758 -1.37382574
-8.84350961 60.8984366 -1.56088333
-10.204248 64.1221222 -1.70948344
-11.4971464 67.3783015 -1.83167711
-12.7514114 70.6460436 -1.93951535
-13.996249 73.9044173 -2.0450492
-15.2608656 77.1324918 -2.16032968
-16.5744674 80.309336 -2.29740783
-17.9662608 83.4140189 -2.46833467
-19.4654521 86.4256095 -2.68516123
-21.1012474 89.3231768 -2.95993854
2.30508502 48.9048381 -0.0200321765
4.39501436 51.9430208 0.0497100073
6.29908727 55.0940728 0.196497818
8.04660295 58.3375186 0.407602521
9.66686063 61.6528828 0.670295382
11.1891596 65.0196898 0.97184767
12.6427989 68.4174643 1.29953065
14.057078 71.8257308 1.64061558
15.461296 75.2240139 1.98237374
16.8847521 78.5918382 2.31207639
18.3567455 81.9087281 2.6169948
19.9065756 85.1542082 2.88440023
21.5635414 88.3078032 3.10156395
23.3569423 91.3490374 3.25575722
-24.2464228 93.3801369 -3.18133608
-27.1900702 97.5930323 -3.31420419
-29.9591059 101.937566 -3.37098729
-32.5804461 106.38944 -3.36412977
-35.081007 110.924358 -3.30607605
-37.4877049 115.518023 -3.20927052
-39.8274558 120.146137 -3.0861576
-42.127176 124.784404 -2.94918169
-44.4137816 129.408525 -2.81078719
-46.714189 133.994204 -2.68341852
-49.0553143 138.517144 -2.57952008
-51.4640736 142.953048 -2.51153626
-53.9673833 147.277617 -2.49191149
-56.5921594 151.466556 -2.53309016
-19.6025843 92.7897316 -2.84240385
-18.3466491 96.3273785 -2.63438397
-17.2997989 99.9241756 -2.34878207
-16.4283906 103.568181 -1.99850129
-15.6987812 107.247453 -1.59644481
-15.0773275 110.95005 -1.15551577
-14.5303866 114.66403 -0.688617326
-14.0243153 118.377452 -0.208652644
-13.5254706 122.078372 0.271475123
-13.0002095 125.75485 0.738862819
-12.4148889 129.394944 1.18060729
-11.7358657 132.986712 1.58380537
-10.9294969 136.518212 1.9355539
-9.96213943 139.977502 2.22294974
-12.0351234 144.378395 1.74658912
-13.8774562 148.888543 1.35685577
-15.5207599 153.490089 1.04171154
-16.9966569 158.165176 0.789118278
-18.3367694 162.895948 0.587037812
-19.5727195 167.664547 0.423431988
-20.7361296 172.453117 0.286262649
-21.8586217 177.2438 0.163491635
-22.9718182 182.01874 0.0430807867
-24.1073413 186.76008 -0.0870080535
-25.2968131 191.449962 -0.238813045
-26.5718559 196.070531 -0.424372346
-27.964092 200.603929 -0.655724116
-29.5051435 205.032299 -0.944906513
-7.15745294 144.203785 2.08869931
-4.56631258 148.568592 2.0435725
-2.15991465 153.050006 2.074994
0.090544556 157.62611 2.17038847
2.21386873 162.274988 2.31718062
4.23886157 166.974722 2.5027951
6.19432678 171.703395 2.7146566
8.10906805 176.43909 2.94018979
10.0118891 181.159891 3.16681936
11.9315936 185.84388 3.38196999
13.8969852 190.469141 3.57306635
15.9368677 195.013755 3.72753312
18.0800448 199.455807 3.83279498
20.3553201 203.773379 3.87627661
25.3048989 96.1669301 3.05022919
27.4892569 100.889656 2.93334097
29.875428 105.528144 2.89262399
32.4288243 110.093322 2.91560971
35.1148576 114.596119 2.98982958
37.8989399 119.047464 3.10281502
40.746483 123.458286 3.24209751
43.6228988 127.839512 3.39520847
46.4935994 132.202072 3.54967935
49.3239966 136.556895 3.6930416
52.0795022 140.914909 3.81282667
54.7255283 145.287042 3.89656601
57.2274867 149.684224 3.93179105
59.5507893 154.117383 3.90603324
23.1838413 95.5843382 2.58546316
22.7559364 99.8043963 2.00007427
22.1094782 104.00911 1.48790045
21.2807171 108.198378 1.03725162
20.3059038 112.372099 0.636437686
19.2212887 116.530171 0.273768553
18.0631224 120.672493 -0.0624458671
16.8676554 124.798964 -0.383895665
15.6711384 128.909481 -0.702270933
14.5098217 133.003944 -1.02926176
13.419956 137.08225 -1.37655824
12.4377918 141.144299 -1.75585046
11.5995797 145.189988 -2.17882851
10.9415701 149.219217 -2.65718248
8.58740607 153.482425 -3.03891298
6.4569764 157.867903 -3.33328087
4.51979071 162.356023 -3.55247925
2.74535866 166.927152 -3.70870123
1.10318993 171.561662 -3.81413991
-0.437205841 176.239921 -3.88098838
-1.90631898 180.9423 -3.92143976
-3.33463984 185.649168 -3.94768715
-4.75265874 190.340895 -3.97192364
-6.19086604 194.99785 -4.00634235
-7.67975206 199.600403 -4.06313637
-9.24980716 204.128924 -4.1544988
-10.9315217 208.563782 -4.29262275
-12.7553859 212.885348 -4.48970133
13.5293446 153.09735 -2.62413496
15.8995 157.106043 -2.50092638
18.081534 161.224694 -2.30036875
20.1049443 165.432704 -2.03527404
21.9992284 169.709471 -1.71845424
23.793884 174.034395 -1.36272135
25.5184089 178.386876 -0.980887343
27.2023005 182.746313 -0.585764212
28.8750566 187.092105 -0.190163944
30.5661748 191.403651 0.193101474
32.3051528 195.660352 0.551220057
34.1214882 199.841605 0.871379815
36.0446786 203.926812 1.14076876
38.1042217 207.895371 1.34657491
LINES 11 176
15 0 1 2 3 4 5 6 7 8 9 10 11 12 13 14
15 14 15 16 17 18 19 20 21 22 23 24 25 26 27 28
15 14 29 30 31 32 33 34 35 36 37 38 39 40 41 42
15 28 43 44 45 46 47 48 49 50 51 52 53 54 55 56
15 28 57 58 59 60 61 62 63 64 65 66 67 68 69 70
15 70 71 72 73 74 75 76 77 78 79 80 81 82 83 84
15 70 85 86 87 88 89 90 91 92 93 94 95 96 97 98
15 42 99 100 101 102 103 104 105 106 107 108 109 110 111 112
15 42 113 114 115 116 117 118 119 120 121 122 123 124 125 126
15 126 127 128 129 130 131 132 133 134 135 136 137 138 139 140
15 126 141 142 143 144 145 146 147 148 149 150 151 152 153 154
POINT_DATA 155
SCALARS Radius float 1
LOOKUP_TABLE default
5
5
5
5
5
5
5
5
5
5
5
5
5
5
5
4.99125364
4.96676385
4.92915452
4.88104956
4.82507289
4.7638484
4.7
4.6361516
4.57492711
4.51895044
4.47084548
4.43323615
4.40874636
4.4
4.99125364
4.96676385
4.92915452
4.88104956
4.82507289
4.7638484
4.7
4.6361516
4.57492711
4.51895044
4.47084548
4.43323615
4.40874636
4.4
4.38623907
4.34770845
4.28853644
4.21285131
4.12478134
4.02845481
3.928
3.82754519
3.73121866
3.64314869
3.56746356
3.50829155
3.46976093
3.456
4.39052478
4.36399417
4.32325073
4.27113703
4.21049563
4.1441691
4.075
4.0058309
3.93950437
3.87886297
3.82674927
3.78600583
3.75947522
3.75
3.74198251
3.71953353
3.68505831
3.6409621
3.58965015
3.5335277
3.475
3.4164723
3.36034985
3.3090379
3.26494169
3.23046647
3.20801749
3.2
3.74198251
3.71953353
3.68505831
3.6409621
3.58965015
3.5335277
3.475
3.4164723
3.36034985
3.3090379
3.26494169
3.23046647
3.20801749
3.2
4.38623907
4.34770845
4.28853644
4.21285131
4.12478134
4.02845481
3.928
3.82754519
3.73121866
3.64314869
3.56746356
3.50829155
3.46976093
3.456
4.39052478
4.36399417
4.32325073
4.27113703
4.21049563
4.1441691
4.075
4.0058309
3.93950437
3.87886297
3.82674927
3.78600583
3.75947522
3.75
3.74198251
3.71953353
3.68505831
3.6409621
3.58965015
3.5335277
3.475
3.4164723
3.36034985
3.3090379
3.26494169
3.23046647
3.20801749
3.2
3.74198251
3.71953353
3.68505831
3.6409621
3.58965015
3.5335277
3.475
3.4164723
3.36034985
3.3090379
3.26494169
3.23046647
3.20801749
3.2
