# vtk DataFile Version 3.0
mCR artificial vessel centerline (millimetres)
ASCII
DATASET POLYDATA
POINTS 43 float
0 0 0
0.719169096 3.26610058 -0.251709184
1.18600583 6.55533528 -0.415102041
1.43593294 9.86267493 -0.502576531
1.50437318 13.1830904 -0.526530612
1.42674927 16.5115525 -0.499362245
1.23848397 19.8430321 -0.433469388
0.975 23.1725 -0.34125
0.671720117 26.4949271 -0.235102041
0.364067055 29.8052843 -0.127423469
0.0874635569 33.0985423 -0.0306122449
-0.122667638 36.369672 0.0429336735
-0.23090379 39.6136443 0.0808163265
-0.201822157 42.82543 0.0706377551
0 46 0
-2.13803192 48.7472518 -0.461397797
-4.06219255 51.6316524 -0.836134
-5.80168819 54.6322707 -1.13625964
-7.38572512 57.7281758 -1.37382574
-8.84350961 60.8984366 -1.56088333
-10.204248 64.1221222 -1.70948344
-11.4971464 67.3783015 -1.83167711
-12.7514114 70.6460436 -1.93951535
-13.996249 73.9044173 -2.0450492
-15.2608656 77.1324918 -2.16032968
-16.5744674 80.309336 -2.29740783
-17.9662608 83.4140189 -2.46833467
-19.4654521 86.4256095 -2.68516123
-21.1012474 89.3231768 -2.95993854
-24.2464228 93.3801369 -3.18133608
-27.1900702 97.5930323 -3.31420419
-29.9591059 101.937566 -3.37098729
-32.5804461 106.38944 -3.36412977
-35.081007 110.924358 -3.30607605
-37.4877049 115.518023 -3.20927052
-39.8274558 120.146137 -3.0861576
-42.127176 124.784404 -2.94918169
-44.4137816 129.408525 -2.81078719
-46.714189 133.994204 -2.68341852
-49.0553143 138.517144 -2.57952008
-51.4640736 142.953048 -2.51153626
-53.9673833 147.277617 -2.49191149
-56.5921594 151.466556 -2.53309016
LINES 1 44
43 0 1 2 3 4 5 6 7 8 9 10 11 12 13 14 15 16 17 18 19 20 21 22 23 24 25 26 27 28 29 30 31 32 33 34 35 36 37 38 39 40 41 42
POINT_DATA 43
SCALARS Radius float 1
LOOKUP_TABLE default
5
5
5
5
5
5
5
5
5
5
5
5
5
5
5
4.99125364
4.96676385
4.92915452
4.88104956
4.82507289
4.7638484
4.7
4.6361516
4.57492711
4.51895044
4.47084548
4.43323615
4.40874636
4.4
4.38623907
4.34770845
4.28853644
4.21285131
4.12478134
4.02845481
3.928
3.82754519
3.73121866
3.64314869
3.56746356
3.50829155
3.46976093
3.456
