# vtk DataFile Version 3.0
mCR artificial vessel centerline (millimetres)
ASCII
DATASET POLYDATA
POINTS 43 float
0 0 0
0.719169096 3.26610058 -0.251709184
1.18600583 6.55533528 -0.415102041
1.43593294 9.86267493 -0.502576531
1.50437318 13.1830904 -0.526530612
1.42674927 16.5115525 -0.499362245
1.23848397 19.8430321 -0.433469388
0.975 23.1725 -0.34125
0.671720117 26.4949271 -0.235102041
0.364067055 29.8052843 -0.127423469
0.0874635569 33.0985423 -0.0306122449
-0.122667638 36.369672 0.0429336735
-0.23090379 39.6136443 0.0808163265
-0.201822157 42.82543 0.0706377551
0 46 0
2.30508502 48.9048381 -0.0200321765
4.39501436 51.9430208 0.0497100073
6.29908727 55.0940728 0.196497818
8.04660295 58.3375186 0.407602521
9.66686063 61.6528828 0.670295382
11.1891596 65.0196898 0.97184767
12.6427989 68.4174643 1.29953065
14.057078 71.8257308 1.64061558
15.461296 75.2240139 1.98237374
16.8847521 78.5918382 2.31207639
18.3567455 81.9087281 2.6169948
19.9065756 85.1542082 2.88440023
21.5635414 88.3078032 3.10156395
23.3569423 91.3490374 3.25575722
25.3048989 96.1669301 3.05022919
27.4892569 100.889656 2.93334097
29.875428 105.528144 2.89262399
32.4288243 110.093322 2.91560971
35.1148576 114.596119 2.98982958
37.8989399 119.047464 3.10281502
40.746483 123.458286 3.24209751
43.6228988 127.839512 3.39520847
46.4935994 132.202072 3.54967935
49.3239966 136.556895 3.6930416
52.0795022 140.914909 3.81282667
54.7255283 145.287042 3.89656601
57.2274867 149.684224 3.93179105
59.5507893 154.117383 3.90603324
LINES 1 44
43 0 1 2 3 4 5 6 7 8 9 10 11 12 13 14 15 16 17 18 19 20 21 22 23 24 25 26 27 28 29 30 31 32 33 34 35 36 37 38 39 40 41 42
POINT_DATA 43
SCALARS Radius float 1
LOOKUP_TABLE default
5
5
5
5
5
5
5
5
5
5
5
5
5
5
5
4.99125364
4.96676385
4.92915452
4.88104956
4.82507289
4.7638484
4.7
4.6361516
4.57492711
4.51895044
4.47084548
4.43323615
4.40874636
4.4
4.38623907
4.34770845
4.28853644
4.21285131
4.12478134
4.02845481
3.928
3.82754519
3.73121866
3.64314869
3.56746356
3.50829155
3.46976093
3.456
