# vtk DataFile Version 3.0
mCR artificial vessel centerline (millimetres)
ASCII
DATASET POLYDATA
POINTS 57 float
0 0 0
0.719169096 3.26610058 -0.251709184
1.18600583 6.55533528 -0.415102041
1.43593294 9.86267493 -0.502576531
1.50437318 13.1830904 -0.526530612
1.42674927 16.5115525 -0.499362245
1.23848397 19.8430321 -0.433469388
0.975 23.1725 -0.34125
0.671720117 26.4949271 -0.235102041
0.364067055 29.8052843 -0.127423469
0.0874635569 33.0985423 -0.0306122449
-0.122667638 36.369672 0.0429336735
-0.23090379 39.6136443 0.0808163265
-0.201822157 42.82543 0.0706377551
0 46 0
2.30508502 48.9048381 -0.0200321765
4.39501436 51.9430208 0.0497100073
6.29908727 55.0940728 0.196497818
8.04660295 58.3375186 0.407602521
9.66686063 61.6528828 0.670295382
11.1891596 65.0196898 0.97184767
12.6427989 68.4174643 1.29953065
14.057078 71.8257308 1.64061558
15.461296 75.2240139 1.98237374
16.8847521 78.5918382 2.31207639
18.3567455 81.9087281 2.6169948
19.9065756 85.1542082 2.88440023
21.5635414 88.3078032 3.10156395
23.3569423 91.3490374 3.25575722
23.1838413 95.5843382 2.58546316
22.7559364 99.8043963 2.00007427
22.1094782 104.00911 1.48790045
21.2807171 108.198378 1.03725162
20.3059038 112.372099 0.636437686
19.2212887 116.530171 0.273768553
18.0631224 120.672493 -0.0624458671
16.8676554 124.798964 -0.383895665
15.6711384 128.909481 -0.702270933
14.5098217 133.003944 -1.02926176
13.419956 137.08225 -1.37655824
12.4377918 141.144299 -1.75585046
11.5995797 145.189988 -2.17882851
10.9415701 149.219217 -2.65718248
13.5293446 153.09735 -2.62413496
15.8995 157.106043 -2.50092638
18.081534 161.224694 -2.30036875
20.1049443 165.432704 -2.03527404
21.9992284 169.709471 -1.71845424
23.793884 174.034395 -1.36272135
25.5184089 178.386876 -0.980887343
27.2023005 182.746313 -0.585764212
28.8750566 187.092105 -0.190163944
30.5661748 191.403651 0.193101474
32.3051528 195.660352 0.551220057
34.1214882 199.841605 0.871379815
36.0446786 203.926812 1.14076876
38.1042217 207.895371 1.34657491
LINES 1 58
57 0 1 2 3 4 5 6 7 8 9 10 11 12 13 14 15 16 17 18 19 20 21 22 23 24 25 26 27 28 29 30 31 32 33 34 35 36 37 38 39 40 41 42 43 44 45 46 47 48 49 50 51 52 53 54 55 56
POINT_DATA 57
SCALARS Radius float 1
LOOKUP_TABLE default
5
5
5
5
5
5
5
5
5
5
5
5
5
5
5
4.99125364
4.96676385
4.92915452
4.88104956
4.82507289
4.7638484
4.7
4.6361516
4.57492711
4.51895044
4.47084548
4.43323615
4.40874636
4.4
4.39052478
4.36399417
4.32325073
4.27113703
4.21049563
4.1441691
4.075
4.0058309
3.93950437
3.87886297
3.82674927
3.78600583
3.75947522
3.75
3.74198251
3.71953353
3.68505831
3.6409621
3.58965015
3.5335277
3.475
3.4164723
3.36034985
3.3090379
3.26494169
3.23046647
3.20801749
3.2
