# vtk DataFile Version 3.0
mCR artificial vessel centerline (millimetres)
ASCII
DATASET POLYDATA
POINTS 57 float
0 0 0
0.719169096 3.26610058 -0.251709184
1.18600583 6.55533528 -0.415102041
1.43593294 9.86267493 -0.502576531
1.50437318 13.1830904 -0.526530612
1.42674927 16.5115525 -0.499362245
1.23848397 19.8430321 -0.433469388
0.975 23.1725 -0.34125
0.671720117 26.4949271 -0.235102041
0.364067055 29.8052843 -0.127423469
0.0874635569 33.0985423 -0.0306122449
-0.122667638 36.369672 0.0429336735
-0.23090379 39.6136443 0.0808163265
-0.201822157 42.82543 0.0706377551
0 46 0
-2.13803192 48.7472518 -0.461397797
-4.06219255 51.6316524 -0.836134
-5.80168819 54.6322707 -1.13625964
-7.38572512 57.7281758 -1.37382574
-8.84350961 60.8984366 -1.56088333
-10.204248 64.1221222 -1.70948344
-11.4971464 67.3783015 -1.83167711
-12.7514114 70.6460436 -1.93951535
-13.996249 73.9044173 -2.0450492
-15.2608656 77.1324918 -2.16032968
-16.5744674 80.309336 -2.29740783
-17.9662608 83.4140189 -2.46833467
-19.4654521 86.4256095 -2.68516123
-21.1012474 89.3231768 -2.95993854
-19.6025843 92.7897316 -2.84240385
-18.3466491 96.3273785 -2.63438397
-17.2997989 99.9241756 -2.34878207
-16.4283906 103.568181 -1.99850129
-15.6987812 107.247453 -1.59644481
-15.0773275 110.95005 -1.15551577
-14.5303866 114.66403 -0.688617326
-14.0243153 118.377452 -0.208652644
-13.5254706 122.078372 0.271475123
-13.0002095 125.75485 0.738862819
-12.4148889 129.394944 1.18060729
-11.7358657 132.986712 1.58380537
-10.9294969 136.518212 1.9355539
-9.96213943 139.977502 2.22294974
-12.0351234 144.378395 1.74658912
-13.8774562 148.888543 1.35685577
-15.5207599 153.490089 1.04171154
-16.9966569 158.165176 0.789118278
-18.3367694 162.895948 0.587037812
-19.5727195 167.664547 0.423431988
-20.7361296 172.453117 0.286262649
-21.8586217 177.2438 0.163491635
-22.9718182 182.01874 0.0430807867
-24.1073413 186.76008 -0.0870080535
-25.2968131 191.449962 -0.238813045
-26.5718559 196.070531 -0.424372346
-27.964092 200.603929 -0.655724116
-29.5051435 205.032299 -0.944906513
LINES 1 58
57 0 1 2 3 4 5 6 7 8 9 10 11 12 13 14 15 16 17 18 19 20 21 22 23 24 25 26 27 28 29 30 31 32 33 34 35 36 37 38 39 40 41 42 43 44 45 46 47 48 49 50 51 52 53 54 55 56
POINT_DATA 57
SCALARS Radius float 1
LOOKUP_TABLE default
5
5
5
5
5
5
5
5
5
5
5
5
5
5
5
4.99125364
4.96676385
4.92915452
4.88104956
4.82507289
4.7638484
4.7
4.6361516
4.57492711
4.51895044
4.47084548
4.43323615
4.40874636
4.4
4.39052478
4.36399417
4.32325073
4.27113703
4.21049563
4.1441691
4.075
4.0058309
3.93950437
3.87886297
3.82674927
3.78600583
3.75947522
3.75
3.74198251
3.71953353
3.68505831
3.6409621
3.58965015
3.5335277
3.475
3.4164723
3.36034985
3.3090379
3.26494169
3.23046647
3.20801749
3.2
