# vtk DataFile Version 3.0
mCR artificial vessel centerline (millimetres)
ASCII
DATASET POLYDATA
POINTS 181 float
0 0 0
0 1.44444444 0
0 2.88888889 0
0 4.33333333 0
0 5.77777778 0
0 7.22222222 0
0 8.66666667 0
0 10.1111111 0
0 11.5555556 0
0 13 0
0 14.4444444 0
0 15.8888889 0
0 17.3333333 0
0 18.7777778 0
0 20.2222222 0
0 21.6666667 0
0 23.1111111 0
0 24.5555556 0
0 26 0
0 27.4444444 0
9.81694961e-05 28.8888889 1.5960071e-05
0.00471862488 30.3333333 0.000925929933
0.019746266 31.7777778 0.00427571704
0.0497462687 33.2222222 0.0114564084
0.0988991759 34.6666667 0.0237742125
0.170907315 36.1111111 0.0424237807
0.268909161 37.5555556 0.0684632353
0.395403033 39 0.102791281
0.552181386 40.4444444 0.146126751
0.740276798 41.8888889 0.198990899
0.959920566 43.3333333 0.261692719
1.21051466 44.7777778 0.334317525
1.49061754 46.2222222 0.416718977
1.79794425 47.6666667 0.5085147
2.12938076 49.1111111 0.609085588
2.48101266 50.5555556 0.717578819
2.84816761 52 0.832914588
3.22547139 53.4444444 0.953796477
3.60691647 54.8888889 1.07872536
3.98594239 56.3333333 1.20601664
4.35552681 57.7777778 1.3338207
4.70828595 59.2222222 1.46014612
5.03658292 60.6666667 1.58288563
5.33264263 62.1111111 1.69984418
5.58867135 63.5555556 1.80876895
5.79697937 65 1.90738078
5.95010496 66.4444444 1.99340677
6.04093773 67.8888889 2.0646133
6.06283958 69.3333333 2.11883937
6.00976152 70.7777778 2.15402953
5.87635448 72.2222222 2.16826614
5.65807247 73.6666667 2.15980032
5.35126651 75.1111111 2.1270813
4.9532678 76.5555556 2.06878374
4.46245883 78 1.9838325
3.87833127 79.4444444 1.87142466
3.2015296 80.8888889 1.73104836
2.4338796 82.3333333 1.56249816
1.57840134 83.7777778 1.36588678
0.63930597 85.2222222 1.14165286
-0.37802362 86.6666667 0.89056479
-1.46706833 88.1111111 0.61372031
-2.62022423 89.5555556 0.312541978
-3.82886938 91 -0.0112315383
-5.08344519 92.4444444 -0.355558271
-6.3735516 93.8888889 -0.718109747
-7.6880548 95.3333333 -1.09629158
-9.01520628 96.7777778 -1.48726769
-10.3427717 98.2222222 -1.88798775
-11.6581678 99.6666667 -2.29521776
-12.9486062 101.111111 -2.70557315
-14.2012414 102.555556 -3.11555421
-15.4033216 104 -3.52158332
-16.5423406 105.444444 -3.92004357
-17.6061882 106.888889 -4.30731829
-18.5832972 108.333333 -4.67983103
-19.462786 109.777778 -5.03408546
-20.2345935 111.222222 -5.36670471
-20.8896053 112.666667 -5.67446971
-21.4197697 114.111111 -5.95435598
-21.8182015 115.555556 -6.20356846
-22.0792723 117 -6.41957395
-22.1986858 118.444444 -6.60013068
-22.1735381 119.888889 -6.74331476
-22.0023608 121.333333 -6.84754305
-21.6851469 122.777778 -6.91159227
-21.2233598 124.222222 -6.93461402
-20.6199235 125.666667 -6.91614552
-19.8791963 127.111111 -6.85611606
-19.0069262 128.555556 -6.75484889
-18.0101897 130 -6.61305859
-16.897315 131.444444 -6.43184408
-15.6777896 132.888889 -6.21267708
-14.3621536 134.333333 -5.95738646
-12.9618819 135.777778 -5.66813837
-11.4892531 137.222222 -5.34741268
-9.95721135 138.666667 -4.9979758
-8.37921853 140.111111 -4.62285032
-6.76910201 141.555556 -4.22528181
-5.14089802 143 -3.80870318
-3.50869339 144.444444 -3.37669707
-1.88646741 145.888889 -2.9329567
-0.287936041 147.333333 -2.48124565
1.27359981 148.777778 -2.02535714
2.78539977 150.222222 -1.56907311
4.23542163 151.666667 -1.11612394
5.61244929 153.111111 -0.670148828
6.90620944 154.555556 -0.234657811
8.10747562 156 0.187004542
9.20815831 157.444444 0.59169308
10.2013801 158.888889 0.976493351
11.0815352 160.333333 1.33874985
11.844332 161.777778 1.6760909
12.4868191 163.222222 1.98644988
13.0073946 164.666667 2.26808254
13.4057977 166.111111 2.51958037
13.6830839 167.555556 2.73987962
13.8415838 169 2.92826617
13.8848467 170.444444 3.08437609
13.8175694 171.888889 3.20819195
13.645511 173.333333 3.30003495
13.3753963 174.777778 3.36055306
13.0148078 176.222222 3.39070535
12.572069 177.666667 3.39174269
12.0561193 179.111111 3.36518524
11.4763845 180.555556 3.31279687
10.8426419 182 3.23655708
10.1648849 183.444444 3.13863066
9.45318604 184.888889 3.02133552
8.71756309 186.333333 2.8871093
7.9678479 187.777778 2.73847499
7.21356099 189.222222 2.57800612
6.46379322 190.666667 2.40829206
5.72709601 192.111111 2.23190378
5.01138172 193.555556 2.05136057
4.32383538 195 1.86909814
3.67083888 196.444444 1.68743858
3.05790855 197.888889 1.5085624
2.48964686 199.333333 1.33448323
1.96970878 200.777778 1.16702535
1.50078298 202.222222 1.00780429
1.08458812 203.666667 0.858210861
0.721883951 205.111111 0.719398772
0.412496912 206.555556 0.59227583
0.155359689 208 0.477498986
-0.0514360554 209.444444 0.375473148
-0.21057474 210.888889 0.28635377
-0.325440823 212.333333 0.210053139
-0.400032954 213.777778 0.146250234
-0.438869733 215.222222 0.0944039746
-0.446888623 216.666667 0.0537696512
-0.429339638 218.111111 0.0234182567
-0.391675514 219.555556 0.00225842436
-0.339440109 221 -0.0109393717
-0.278156786 222.444444 -0.0175167242
-0.213218552 223.888889 -0.0188997035
-0.149781665 225.333333 -0.0165701884
-0.0926643759 226.777778 -0.012036547
-0.0462524009 228.222222 -0.00680410479
-0.014412589 229.666667 -0.00234584185
-0.000416146474 231.111111 -7.37541957e-05
0 232.555556 0
0 234 0
0 235.444444 0
0 236.888889 0
0 238.333333 0
0 239.777778 0
0 241.222222 0
0 242.666667 0
0 244.111111 0
0 245.555556 0
0 247 0
0 248.444444 0
0 249.888889 0
0 251.333333 0
0 252.777778 0
0 254.222222 0
0 255.666667 0
0 257.111111 0
0 258.555556 0
0 260 0
LINES 1 182
181 0 1 2 3 4 5 6 7 8 9 10 11 12 13 14 15 16 17 18 19 20 21 22 23 24 25 26 27 28 29 30 31 32 33 34 35 36 37 38 39 40 41 42 43 44 45 46 47 48 49 50 51 52 53 54 55 56 57 58 59 60 61 62 63 64 65 66 67 68 69 70 71 72 73 74 75 76 77 78 79 80 81 82 83 84 85 86 87 88 89 90 91 92 93 94 95 96 97 98 99 100 101 102 103 104 105 106 107 108 109 110 111 112 113 114 115 116 117 118 119 120 121 122 123 124 125 126 127 128 129 130 131 132 133 134 135 136 137 138 139 140 141 142 143 144 145 146 147 148 149 150 151 152 153 154 155 156 157 158 159 160 161 162 163 164 165 166 167 168 169 170 171 172 173 174 175 176 177 178 179 180
POINT_DATA 181
SCALARS Radius float 1
LOOKUP_TABLE default
4.5
4.5
4.5
4.5
4.5
4.5
4.5
4.5
4.5
4.5
4.5
4.5
4.5
4.5
4.5
4.5
4.5
4.5
4.5
4.5
4.5
4.5
4.5
4.5
4.5
4.5
4.5
4.5
4.5
4.5
4.5
4.5
4.5
4.5
4.5
4.5
4.5
4.5
4.5
4.5
4.5
4.5
4.5
4.5
4.5
4.5
4.5
4.5
4.5
4.5
4.5
4.5
4.5
4.5
4.5
4.5
4.5
4.5
4.5
4.5
4.5
4.5
4.5
4.5
4.5
4.5
4.5
4.5
4.5
4.5
4.5
4.5
4.5
4.5
4.5
4.5
4.5
4.5
4.5
4.5
4.5
4.5
4.5
4.5
4.5
4.5
4.5
4.5
4.5
4.5
4.5
4.5
4.5
4.5
4.5
4.5
4.5
4.5
4.5
4.5
4.5
4.5
4.5
4.5
4.5
4.5
4.5
4.5
4.5
4.5
4.5
4.5
4.5
4.5
4.5
4.5
4.5
4.5
4.5
4.5
4.5
4.5
4.5
4.5
4.5
4.5
4.5
4.5
4.5
4.5
4.5
4.5
4.5
4.5
4.5
4.5
4.5
4.5
4.5
4.5
4.5
4.5
4.5
4.5
4.5
4.5
4.5
4.5
4.5
4.5
4.5
4.5
4.5
4.5
4.5
4.5
4.5
4.5
4.5
4.5
4.5
4.5
4.5
4.5
4.5
4.5
4.5
4.5
4.5
4.5
4.5
4.5
4.5
4.5
4.5
4.5
4.5
4.5
4.5
4.5
4.5
