# vtk DataFile Version 3.0
mCR artificial vessel centerline (millimetres)
ASCII
DATASET POLYDATA
POINTS 181 float
0 0 0
0 1.72222222 0
0 3.44444444 0
0 5.16666667 0
0 6.88888889 0
0 8.61111111 0
0 10.3333333 0
0 12.0555556 0
0 13.7777778 0
0 15.5 0
0 17.2222222 0
0 18.9444444 0
0 20.6666667 0
0 22.3888889 0
0 24.1111111 0
0 25.8333333 0
0 27.5555556 0
0 29.2777778 0
0 31 0
0 32.7222222 0
0.000597940233 34.4444444 0.000197046387
0.0226746052 36.1666667 0.00818894475
0.0791296893 37.8888889 0.0309366751
0.171514361 39.6111111 0.0720309125
0.298864328 41.3333333 0.134195074
0.457679436 43.0555556 0.219175767
0.641989246 44.7777778 0.327658842
0.843503372 46.5 0.45921324
1.05184295 48.2222222 0.612264203
1.25484737 49.9444444 0.784096767
1.43894836 51.6666667 0.970889773
1.58960137 53.3888889 1.16777995
1.6917628 55.1111111 1.36895498
1.7304001 56.8333333 1.56777365
1.69102059 58.5555556 1.7569109
1.56020442 60.2777778 1.92852456
1.32612659 62 2.07444046
0.979052991 63.7222222 2.18635184
0.511795995 65.4444444 2.2560289
-0.0798841207 67.1666667 2.27553382
-0.79694442 68.8888889 2.23743656
-1.63680221 70.6111111 2.13502651
-2.59316476 72.3333333 1.96251537
-3.65595288 74.0555556 1.71522632
-4.81132325 75.7777778 1.38976531
-6.04179167 77.5 0.98417002
-7.3264573 79.2222222 0.498032965
-8.64132498 80.9444444 -0.0674045654
-9.95972041 82.6666667 -0.709190469
-11.2527906 84.3888889 -1.42263372
-12.4900794 86.1111111 -2.20131158
-13.6401665 87.8333333 -3.03711284
-14.6713557 89.5555556 -3.92031707
-15.552397 91.2777778 -4.83970903
-16.2532267 93 -5.78272684
-16.7457079 94.7222222 -6.73564158
-17.0043533 96.4444444 -7.68376564
-17.0070141 98.1666667 -8.61168603
-16.7355172 99.8888889 -9.50351893
-16.1762335 101.611111 -10.3431807
-15.3205652 103.333333 -11.1146705
-14.165336 105.055556 -11.8023594
-12.7130749 106.777778 -12.3912806
-10.972184 108.5 -12.8674146
-8.9569837 110.222222 -13.217965
-6.68763173 111.944444 -13.4316184
-4.18991556 113.666667 -13.4987841
-1.49491934 115.388889 -13.4118077
1.36142938 117.111111 -13.1651556
4.33892557 118.833333 -12.7555657
7.39375522 120.555556 -12.1821603
10.4792538 122.277778 -11.4465202
13.5467395 124 -10.5527169
16.5464055 125.722222 -9.50730204
19.4282518 127.444444 -8.31925357
22.1430385 129.166667 -6.99987948
24.6432402 130.888889 -5.56267992
26.8839813 132.611111 -4.0231699
28.8239318 134.333333 -2.39866528
30.426146 136.055556 -0.708035486
31.6588234 137.777778 1.02857292
32.4959774 139.5 2.7900372
32.9179955 141.222222 4.55457877
32.9120797 142.944444 6.30009737
32.4725551 144.666667 8.00451341
31.6010425 146.388889 9.64611228
30.3064867 148.111111 11.2038848
28.6050431 149.833333 12.6578577
26.519821 151.555556 13.9894085
24.0804906 153.277778 15.1815589
21.3227604 155 16.2192417
18.2877356 156.722222 17.0895369
15.0211707 158.444444 17.7818717
11.5726309 160.166667 18.2881828
7.99458114 161.888889 18.6030361
4.34141945 163.611111 18.7237027
0.66847614 165.333333 18.6501912
-2.96900137 167.055556 18.3852329
-6.51685688 168.777778 17.9342232
-9.92300645 170.5 17.305119
-13.138372 172.222222 16.5082939
-16.1177488 173.944444 15.5563544
-18.820589 175.666667 14.4639213
-21.2116864 177.388889 13.2473784
-23.2617486 179.111111 11.9245945
-24.9478459 180.833333 10.5146246
-26.253729 182.555556 9.03739314
-27.1700107 184.277778 7.5133677
-27.6942082 186 5.96322741
-27.8306479 187.722222 4.40753255
-27.5902369 189.444444 2.86640112
-26.9901059 191.166667 1.35919807
-26.0531351 192.888889 -0.095757562
-24.8073734 194.611111 -1.48146241
-23.2853652 196.333333 -2.78247102
-21.5234015 198.055556 -3.98510662
-19.5607109 199.777778 -5.07763696
-17.4386101 201.5 -6.05041277
-15.1996333 203.222222 -6.89596666
-12.8866575 204.944444 -7.60907159
-10.5420455 206.666667 -8.18675825
-8.20682268 208.388889 -8.62829197
-5.9199058 210.111111 -8.93511028
-3.71739948 211.833333 -9.11072289
-1.63197417 213.555556 -9.16057687
0.307662515 215.277778 -9.09189016
2.07719132 217 -8.91345716
3.65699699 218.722222 -8.63543084
5.03236957 220.444444 -8.26908577
6.1935897 222.166667 -7.82656739
7.13589907 223.888889 -7.32063238
7.85935984 225.611111 -6.76438556
8.36860921 227.333333 -6.17101853
8.67251791 229.055556 -5.55355521
8.78376335 230.777778 -4.92460916
8.71833001 232.5 -4.29615733
8.4949511 234.222222 -3.67933437
8.1345069 235.944444 -3.08425133
7.65939557 237.666667 -2.51984179
7.09289281 239.388889 -1.99373809
6.45851673 241.111111 -1.51217941
5.77941364 242.833333 -1.079953
5.07777986 244.555556 -0.700369112
4.37433321 246.277778 -0.375269173
3.68784664 248 -0.105066541
3.03475424 249.722222 0.111181914
2.42883828 251.444444 0.27567559
1.88100323 253.166667 0.391744112
1.39914078 254.888889 0.463698814
0.988087049 256.611111 0.496665529
0.649671038 258.333333 0.496402821
0.382850804 260.055556 0.469110086
0.1839316 261.777778 0.421230112
0.0468581366 263.5 0.359250764
-0.0364288157 265.222222 0.289510441
-0.0755828496 266.944444 0.218011831
-0.0814020901 268.666667 0.150248273
-0.0653527863 270.388889 0.0910467073
-0.0390806275 272.111111 0.0444308363
-0.0139243269 273.833333 0.0135076049
-0.00044586906 275.555556 0.000379607358
0 277.277778 0
0 279 0
0 280.722222 0
0 282.444444 0
0 284.166667 0
0 285.888889 0
0 287.611111 0
0 289.333333 0
0 291.055556 0
0 292.777778 0
0 294.5 0
0 296.222222 0
0 297.944444 0
0 299.666667 0
0 301.388889 0
0 303.111111 0
0 304.833333 0
0 306.555556 0
0 308.277778 0
0 310 0
LINES 1 182
181 0 1 2 3 4 5 6 7 8 9 10 11 12 13 14 15 16 17 18 19 20 21 22 23 24 25 26 27 28 29 30 31 32 33 34 35 36 37 38 39 40 41 42 43 44 45 46 47 48 49 50 51 52 53 54 55 56 57 58 59 60 61 62 63 64 65 66 67 68 69 70 71 72 73 74 75 76 77 78 79 80 81 82 83 84 85 86 87 88 89 90 91 92 93 94 95 96 97 98 99 100 101 102 103 104 105 106 107 108 109 110 111 112 113 114 115 116 117 118 119 120 121 122 123 124 125 126 127 128 129 130 131 132 133 134 135 136 137 138 139 140 141 142 143 144 145 146 147 148 149 150 151 152 153 154 155 156 157 158 159 160 161 162 163 164 165 166 167 168 169 170 171 172 173 174 175 176 177 178 179 180
POINT_DATA 181
SCALARS Radius float 1
LOOKUP_TABLE default
4
4
4
4
4
4
4
4
4
4
4
4
4
4
4
4
4
4
4
4
4
4
4
4
4
4
4
4
4
4
4
4
4
4
4
4
4
4
4
4
4
4
4
4
4
4
4
4
4
4
4
4
4
4
4
4
4
4
4
4
4
4
4
4
4
4
4
4
4
4
4
4
4
4
4
4
4
4
4
4
4
4
4
4
4
4
4
4
4
4
4
4
4
4
4
4
4
4
4
4
4
4
4
4
4
4
4
4
4
4
4
4
4
4
4
4
4
4
4
4
4
4
4
4
4
4
4
4
4
4
4
4
4
4
4
4
4
4
4
4
4
4
4
4
4
4
4
4
4
4
4
4
4
4
4
4
4
4
4
4
4
4
4
4
4
4
4
4
4
4
4
4
4
4
4
4
4
4
4
4
4
