# vtk DataFile Version 3.0
mCR artificial vessel centerline (millimetres)
ASCII
DATASET POLYDATA
POINTS 43 float
0 0 0
1.07875364 3.26610058 -0.377563776
1.77900875 6.55533528 -0.622653061
2.15389942 9.86267493 -0.753864796
2.25655977 13.1830904 -0.789795918
2.14012391 16.5115525 -0.749043367
1.85772595 19.8430321 -0.650204082
1.4625 23.1725 -0.511875
1.00758017 26.4949271 -0.352653061
0.546100583 29.8052843 -0.191135204
0.131195335 33.0985423 -0.0459183673
-0.184001458 36.369672 0.0644005102
-0.346355685 39.6136443 0.12122449
-0.302733236 42.82543 0.105956633
0 46 0
-2.54605758 48.6309173 -0.571542964
-4.76924346 51.4619708 -1.01219144
-6.71401349 54.4633534 -1.34021443
-8.42482351 57.6052581 -1.57388095
-9.94612936 60.8578778 -1.73146003
-11.3223869 64.1914055 -1.83122066
-12.5980519 67.5760342 -1.89143186
-13.8175804 70.9819568 -1.93036265
-15.025428 74.3793663 -1.96628204
-16.2660506 77.7384556 -2.01745904
-17.5839042 81.0294176 -2.10216267
-19.0234444 84.2224455 -2.23866193
-20.6291273 87.2877321 -2.44522585
-22.4454085 90.1954703 -2.74012343
-25.4144799 93.8141326 -3.35174818
-28.0606912 97.6341845 -3.83273366
-30.4282704 101.625113 -4.20129123
-32.5614455 105.756405 -4.47563226
-34.5044445 109.997548 -4.6739681
-36.3014955 114.318029 -4.81451014
-37.9968266 118.687334 -4.91546972
-39.6346656 123.07495 -4.99505823
-41.2592407 127.450365 -5.07148701
-42.9147799 131.783064 -5.16296745
-44.6455112 136.042537 -5.28771091
-46.4956626 140.198268 -5.46392874
-48.5094622 144.219746 -5.70983232
-50.7311379 148.076456 -6.04363302
LINES 1 44
43 0 1 2 3 4 5 6 7 8 9 10 11 12 13 14 15 16 17 18 19 20 21 22 23 24 25 26 27 28 29 30 31 32 33 34 35 36 37 38 39 40 41 42
POINT_DATA 43
SCALARS Radius float 1
LOOKUP_TABLE default
5.1
5.1
5.1
5.1
5.1
5.1
5.1
5.1
5.1
5.1
5.1
5.1
5.1
5.1
5.1
5.09107872
5.06609913
5.02773761
4.97867055
4.92157434
4.85912536
4.794
4.72887464
4.66642566
4.60932945
4.56026239
4.52190087
4.49692128
4.488
4.46980758
4.4188688
4.3406414
4.24058309
4.1241516
3.99680466
3.864
3.73119534
3.6038484
3.48741691
3.3873586
3.3091312
3.25819242
3.24
