# vtk DataFile Version 3.0
mCR artificial vessel centerline (millimetres)
ASCII
DATASET POLYDATA
POINTS 155 float
0 0 0
1.07875364 3.26610058 -0.377563776
1.77900875 6.55533528 -0.622653061
2.15389942 9.86267493 -0.753864796
2.25655977 13.1830904 -0.789795918
2.14012391 16.5115525 -0.749043367
1.85772595 19.8430321 -0.650204082
1.4625 23.1725 -0.511875
1.00758017 26.4949271 -0.352653061
0.546100583 29.8052843 -0.191135204
0.131195335 33.0985423 -0.0459183673
-0.184001458 36.369672 0.0644005102
-0.346355685 39.6136443 0.12122449
-0.302733236 42.82543 0.105956633
0 46 0
-2.54605758 48.6309173 -0.571542964
-4.76924346 51.4619708 -1.01219144
-6.71401349 54.4633534 -1.34021443
-8.42482351 57.6052581 -1.57388095
-9.94612936 60.8578778 -1.73146003
-11.3223869 64.1914055 -1.83122066
-12.5980519 67.5760342 -1.89143186
-13.8175804 70.9819568 -1.93036265
-15.025428 74.3793663 -1.96628204
-16.2660506 77.7384556 -2.01745904
-17.5839042 81.0294176 -2.10216267
-19.0234444 84.2224455 -2.23866193
-20.6291273 87.2877321 -2.44522585
-22.4454085 90.1954703 -2.74012343
2.69003404 48.7825663 -0.0224560437
5.05166493 51.7537921 0.0894590935
7.13005649 54.8854178 0.316689455
8.97037251 58.1491839 0.640179084
10.6177768 61.5168309 1.04087202
12.1174332 64.9600993 1.49971232
13.5145054 68.4507296 1.99764401
14.8541573 71.9604621 2.51561115
16.1815527 75.4610375 3.03455777
17.5418553 78.9241962 3.53542792
18.9802291 82.3216786 3.99916564
20.5418377 85.6252254 4.40671498
22.271845 88.8065768 4.73901997
24.2154148 91.8374735 4.97702467
-25.4144799 93.8141326 -3.35174818
-28.0606912 97.6341845 -3.83273366
-30.4282704 101.625113 -4.20129123
-32.5614455 105.756405 -4.47563226
-34.5044445 109.997548 -4.6739681
-36.3014955 114.318029 -4.81451014
-37.9968266 118.687334 -4.91546972
-39.6346656 123.07495 -4.99505823
-41.2592407 127.450365 -5.07148701
-42.9147799 131.783064 -5.16296745
-44.6455112 136.042537 -5.28771091
-46.4956626 140.198268 -5.46392874
-48.5094622 144.219746 -5.70983232
-50.7311379 148.076456 -6.04363302
-20.3892578 93.6005317 -2.77953604
-18.6940055 97.120675 -2.68460764
-17.3095376 100.737749 -2.47438085
-16.1857401 104.433602 -2.16789827
-15.2724992 108.190083 -1.7842025
-14.5197007 111.98904 -1.34233617
-13.8772308 115.812323 -0.861341864
-13.2949755 119.64178 -0.360262205
-12.7228208 123.459259 0.141860202
-12.1106527 127.24661 0.625982748
-11.4083574 130.985681 1.07306283
-10.5658207 134.658321 1.46405783
-9.53292878 138.246378 1.77992514
-8.25956764 141.731701 2.00162216
-10.839272 146.121872 1.28678214
-13.0732919 150.672454 0.701719897
-15.0093026 155.358337 0.228401493
-16.694979 160.154409 -0.151206996
-18.1779963 165.035561 -0.455139496
-19.5060296 169.976682 -0.701429934
-20.7267539 174.952661 -0.908112237
-21.8878444 179.938389 -1.09322033
-23.0369762 184.908754 -1.27478814
-24.2218242 189.838647 -1.4708496
-25.4900638 194.702956 -1.69943863
-26.8893698 199.476572 -1.97858916
-28.4674175 204.134384 -2.32633511
-30.2718819 208.651282 -2.76071042
-5.33606158 146.190448 1.86845849
-2.75325165 150.816906 1.8693521
-0.464354414 155.584892 1.98535079
1.57741352 160.468222 2.19750233
3.41883555 165.440715 2.4868545
5.1066951 170.476187 2.83445508
6.68777557 175.548454 3.22135184
8.20886036 180.631335 3.62859257
9.71673289 185.698644 4.03722504
11.2581766 190.724201 4.42829702
12.8799748 195.681821 4.78285631
14.628911 200.545322 5.08195068
16.5517685 205.288521 5.3066279
18.6953308 209.885233 5.43793575
25.4740478 96.5908399 4.69510998
27.082849 101.197162 4.54632037
28.9914547 105.674764 4.51191544
31.1495012 110.041971 4.5731548
33.506625 114.317108 4.71129803
36.0124625 118.5185 4.90760474
38.6166499 122.664472 5.14333451
41.2688238 126.773348 5.39974696
43.9186204 130.863454 5.65810167
46.5156761 134.953114 5.89965824
49.0096274 139.060654 6.10567627
51.3501106 143.204398 6.25741536
53.486762 147.402671 6.3361351
55.3692181 151.673797 6.32309509
24.2768475 95.6242102 3.9924334
23.9608846 99.3550879 3.13419705
23.3210474 103.036008 2.38491165
22.4108576 106.672874 1.72717323
21.2838368 110.271586 1.14357779
19.9935065 113.838048 0.616721367
18.5933882 117.37816 0.12919998
17.1370035 120.897825 -0.336390351
15.6778739 124.402946 -0.797453603
14.269521 127.899423 -1.27139376
12.9654664 131.39316 -1.77561479
11.8192315 134.890057 -2.32752067
10.884338 138.396018 -2.94451539
10.2143074 141.916944 -3.64400293
7.65963545 146.540334 -4.14949874
5.45487633 151.313456 -4.52346749
3.55174154 156.212589 -4.78430327
1.90194256 161.214015 -4.95040016
0.457190888 166.294012 -5.04015227
-0.830801999 171.428862 -5.07195367
-2.01032462 176.594845 -5.06419848
-3.12966548 181.768241 -5.03528077
-4.2371131 186.925331 -5.00359464
-5.380956 192.042395 -4.98753419
-6.6094827 197.095714 -5.00549349
-7.9709817 202.061567 -5.07586666
-9.51374152 206.916235 -5.21704777
-11.2860507 211.635999 -5.44743093
12.7984796 146.293212 -3.49309842
15.0298501 150.808137 -3.20674103
16.9571017 155.439702 -2.8042329
18.628917 160.165892 -2.30487618
20.0939787 164.964691 -1.72797303
21.4009694 169.814083 -1.09282558
22.5985719 174.692051 -0.41873598
23.7354689 179.57658 0.274993614
24.8603429 184.445654 0.969061061
26.0218767 189.277256 1.64416421
27.268753 194.049372 2.28100092
28.6496543 198.739984 2.86026904
30.2132635 203.327078 3.36266642
32.0082632 207.788636 3.76889092
LINES 11 176
15 0 1 2 3 4 5 6 7 8 9 10 11 12 13 14
15 14 15 16 17 18 19 20 21 22 23 24 25 26 27 28
15 14 29 30 31 32 33 34 35 36 37 38 39 40 41 42
15 28 43 44 45 46 47 48 49 50 51 52 53 54 55 56
15 28 57 58 59 60 61 62 63 64 65 66 67 68 69 70
15 70 71 72 73 74 75 76 77 78 79 80 81 82 83 84
15 70 85 86 87 88 89 90 91 92 93 94 95 96 97 98
15 42 99 100 101 102 103 104 105 106 107 108 109 110 111 112
15 42 113 114 115 116 117 118 119 120 121 122 123 124 125 126
15 126 127 128 129 130 131 132 133 134 135 136 137 138 139 140
15 126 141 142 143 144 145 146 147 148 149 150 151 152 153 154
POINT_DATA 155
SCALARS Radius float 1
LOOKUP_TABLE default
5.1
5.1
5.1
5.1
5.1
5.1
5.1
5.1
5.1
5.1
5.1
5.1
5.1
5.1
5.1
5.09107872
5.06609913
5.02773761
4.97867055
4.92157434
4.85912536
4.794
4.72887464
4.66642566
4.60932945
4.56026239
4.52190087
4.49692128
4.488
5.09107872
5.06609913
5.02773761
4.97867055
4.92157434
4.85912536
4.794
4.72887464
4.66642566
4.60932945
4.56026239
4.52190087
4.49692128
4.488
4.46980758
4.4188688
4.3406414
4.24058309
4.1241516
3.99680466
3.864
3.73119534
3.6038484
3.48741691
3.3873586
3.3091312
3.25819242
3.24
4.47833528
4.45127405
4.40971574
4.35655977
4.29470554
4.22705248
4.1565
4.08594752
4.01829446
3.95644023
3.90328426
3.86172595
3.83466472
3.825
3.81297376
3.77930029
3.72758746
3.66144315
3.58447522
3.50029155
3.4125
3.32470845
3.24052478
3.16355685
3.09741254
3.04569971
3.01202624
3
3.81297376
3.77930029
3.72758746
3.66144315
3.58447522
3.50029155
3.4125
3.32470845
3.24052478
3.16355685
3.09741254
3.04569971
3.01202624
3
4.46980758
4.4188688
4.3406414
4.24058309
4.1241516
3.99680466
3.864
3.73119534
3.6038484
3.48741691
3.3873586
3.3091312
3.25819242
3.24
4.47833528
4.45127405
4.40971574
4.35655977
4.29470554
4.22705248
4.1565
4.08594752
4.01829446
3.95644023
3.90328426
3.86172595
3.83466472
3.825
3.81297376
3.77930029
3.72758746
3.66144315
3.58447522
3.50029155
3.4125
3.32470845
3.24052478
3.16355685
3.09741254
3.04569971
3.01202624
3
3.81297376
3.77930029
3.72758746
3.66144315
3.58447522
3.50029155
3.4125
3.32470845
3.24052478
3.16355685
3.09741254
3.04569971
3.01202624
3
