# vtk DataFile Version 3.0
mCR artificial vessel centerline (millimetres)
ASCII
DATASET POLYDATA
POINTS 57 float
0 0 0
1.07875364 3.26610058 -0.377563776
1.77900875 6.55533528 -0.622653061
2.15389942 9.86267493 -0.753864796
2.25655977 13.1830904 -0.789795918
2.14012391 16.5115525 -0.749043367
1.85772595 19.8430321 -0.650204082
1.4625 23.1725 -0.511875
1.00758017 26.4949271 -0.352653061
0.546100583 29.8052843 -0.191135204
0.131195335 33.0985423 -0.0459183673
-0.184001458 36.369672 0.0644005102
-0.346355685 39.6136443 0.12122449
-0.302733236 42.82543 0.105956633
0 46 0
2.69003404 48.7825663 -0.0224560437
5.05166493 51.7537921 0.0894590935
7.13005649 54.8854178 0.316689455
8.97037251 58.1491839 0.640179084
10.6177768 61.5168309 1.04087202
12.1174332 64.9600993 1.49971232
13.5145054 68.4507296 1.99764401
14.8541573 71.9604621 2.51561115
16.1815527 75.4610375 3.03455777
17.5418553 78.9241962 3.53542792
18.9802291 82.3216786 3.99916564
20.5418377 85.6252254 4.40671498
22.271845 88.8065768 4.73901997
24.2154148 91.8374735 4.97702467
24.2768475 95.6242102 3.9924334
23.9608846 99.3550879 3.13419705
23.3210474 103.036008 2.38491165
22.4108576 106.672874 1.72717323
21.2838368 110.271586 1.14357779
19.9935065 113.838048 0.616721367
18.5933882 117.37816 0.12919998
17.1370035 120.897825 -0.336390351
15.6778739 124.402946 -0.797453603
14.269521 127.899423 -1.27139376
12.9654664 131.39316 -1.77561479
11.8192315 134.890057 -2.32752067
10.884338 138.396018 -2.94451539
10.2143074 141.916944 -3.64400293
12.7984796 146.293212 -3.49309842
15.0298501 150.808137 -3.20674103
16.9571017 155.439702 -2.8042329
18.628917 160.165892 -2.30487618
20.0939787 164.964691 -1.72797303
21.4009694 169.814083 -1.09282558
22.5985719 174.692051 -0.41873598
23.7354689 179.57658 0.274993614
24.8603429 184.445654 0.969061061
26.0218767 189.277256 1.64416421
27.268753 194.049372 2.28100092
28.6496543 198.739984 2.86026904
30.2132635 203.327078 3.36266642
32.0082632 207.788636 3.76889092
LINES 1 58
57 0 1 2 3 4 5 6 7 8 9 10 11 12 13 14 15 16 17 18 19 20 21 22 23 24 25 26 27 28 29 30 31 32 33 34 35 36 37 38 39 40 41 42 43 44 45 46 47 48 49 50 51 52 53 54 55 56
POINT_DATA 57
SCALARS Radius float 1
LOOKUP_TABLE default
5.1
5.1
5.1
5.1
5.1
5.1
5.1
5.1
5.1
5.1
5.1
5.1
5.1
5.1
5.1
5.09107872
5.06609913
5.02773761
4.97867055
4.92157434
4.85912536
4.794
4.72887464
4.66642566
4.60932945
4.56026239
4.52190087
4.49692128
4.488
4.47833528
4.45127405
4.40971574
4.35655977
4.29470554
4.22705248
4.1565
4.08594752
4.01829446
3.95644023
3.90328426
3.86172595
3.83466472
3.825
3.81297376
3.77930029
3.72758746
3.66144315
3.58447522
3.50029155
3.4125
3.32470845
3.24052478
3.16355685
3.09741254
3.04569971
3.01202624
3
