# vtk DataFile Version 3.0
mCR artificial vessel centerline (millimetres)
ASCII
DATASET POLYDATA
POINTS 43 float
0 0 0
1.07875364 3.26610058 -0.377563776
1.77900875 6.55533528 -0.622653061
2.15389942 9.86267493 -0.753864796
2.25655977 13.1830904 -0.789795918
2.14012391 16.5115525 -0.749043367
1.85772595 19.8430321 -0.650204082
1.4625 23.1725 -0.511875
1.00758017 26.4949271 -0.352653061
0.546100583 29.8052843 -0.191135204
0.131195335 33.0985423 -0.0459183673
-0.184001458 36.369672 0.0644005102
-0.346355685 39.6136443 0.12122449
-0.302733236 42.82543 0.105956633
0 46 0
2.69003404 48.7825663 -0.0224560437
5.05166493 51.7537921 0.0894590935
7.13005649 54.8854178 0.316689455
8.97037251 58.1491839 0.640179084
10.6177768 61.5168309 1.04087202
12.1174332 64.9600993 1.49971232
13.5145054 68.4507296 1.99764401
14.8541573 71.9604621 2.51561115
16.1815527 75.4610375 3.03455777
17.5418553 78.9241962 3.53542792
18.9802291 82.3216786 3.99916564
20.5418377 85.6252254 4.40671498
22.271845 88.8065768 4.73901997
24.2154148 91.8374735 4.97702467
25.4740478 96.5908399 4.69510998
27.082849 101.197162 4.54632037
28.9914547 105.674764 4.51191544
31.1495012 110.041971 4.5731548
33.506625 114.317108 4.71129803
36.0124625 118.5185 4.90760474
38.6166499 122.664472 5.14333451
41.2688238 126.773348 5.39974696
43.9186204 130.863454 5.65810167
46.5156761 134.953114 5.89965824
49.0096274 139.060654 6.10567627
51.3501106 143.204398 6.25741536
53.486762 147.402671 6.3361351
55.3692181 151.673797 6.32309509
LINES 1 44
43 0 1 2 3 4 5 6 7 8 9 10 11 12 13 14 15 16 17 18 19 20 21 22 23 24 25 26 27 28 29 30 31 32 33 34 35 36 37 38 39 40 41 42
POINT_DATA 43
SCALARS Radius float 1
LOOKUP_TABLE default
5.1
5.1
5.1
5.1
5.1
5.1
5.1
5.1
5.1
5.1
5.1
5.1
5.1
5.1
5.1
5.09107872
5.06609913
5.02773761
4.97867055
4.92157434
4.85912536
4.794
4.72887464
4.66642566
4.60932945
4.56026239
4.52190087
4.49692128
4.488
4.46980758
4.4188688
4.3406414
4.24058309
4.1241516
3.99680466
3.864
3.73119534
3.6038484
3.48741691
3.3873586
3.3091312
3.25819242
3.24
