# vtk DataFile Version 3.0
mCR artificial vessel centerline (millimetres)
ASCII
DATASET POLYDATA
POINTS 57 float
0 0 0
1.07875364 3.26610058 -0.377563776
1.77900875 6.55533528 -0.622653061
2.15389942 9.86267493 -0.753864796
2.25655977 13.1830904 -0.789795918
2.14012391 16.5115525 -0.749043367
1.85772595 19.8430321 -0.650204082
1.4625 23.1725 -0.511875
1.00758017 26.4949271 -0.352653061
0.546100583 29.8052843 -0.191135204
0.131195335 33.0985423 -0.0459183673
-0.184001458 36.369672 0.0644005102
-0.346355685 39.6136443 0.12122449
-0.302733236 42.82543 0.105956633
0 46 0
-2.54605758 48.6309173 -0.571542964
-4.76924346 51.4619708 -1.01219144
-6.71401349 54.4633534 -1.34021443
-8.42482351 57.6052581 -1.57388095
-9.94612936 60.8578778 -1.73146003
-11.3223869 64.1914055 -1.83122066
-12.5980519 67.5760342 -1.89143186
-13.8175804 70.9819568 -1.93036265
-15.025428 74.3793663 -1.96628204
-16.2660506 77.7384556 -2.01745904
-17.5839042 81.0294176 -2.10216267
-19.0234444 84.2224455 -2.23866193
-20.6291273 87.2877321 -2.44522585
-22.4454085 90.1954703 -2.74012343
-20.3892578 93.6005317 -2.77953604
-18.6940055 97.120675 -2.68460764
-17.3095376 100.737749 -2.47438085
-16.1857401 104.433602 -2.16789827
-15.2724992 108.190083 -1.7842025
-14.5197007 111.98904 -1.34233617
-13.8772308 115.812323 -0.861341864
-13.2949755 119.64178 -0.360262205
-12.7228208 123.459259 0.141860202
-12.1106527 127.24661 0.625982748
-11.4083574 130.985681 1.07306283
-10.5658207 134.658321 1.46405783
-9.53292878 138.246378 1.77992514
-8.25956764 141.731701 2.00162216
-5.33606158 146.190448 1.86845849
-2.75325165 150.816906 1.8693521
-0.464354414 155.584892 1.98535079
1.57741352 160.468222 2.19750233
3.41883555 165.440715 2.4868545
5.1066951 170.476187 2.83445508
6.68777557 175.548454 3.22135184
8.20886036 180.631335 3.62859257
9.71673289 185.698644 4.03722504
11.2581766 190.724201 4.42829702
12.8799748 195.681821 4.78285631
14.628911 200.545322 5.08195068
16.5517685 205.288521 5.3066279
18.6953308 209.885233 5.43793575
LINES 1 58
57 0 1 2 3 4 5 6 7 8 9 10 11 12 13 14 15 16 17 18 19 20 21 22 23 24 25 26 27 28 29 30 31 32 33 34 35 36 37 38 39 40 41 42 43 44 45 46 47 48 49 50 51 52 53 54 55 56
POINT_DATA 57
SCALARS Radius float 1
LOOKUP_TABLE default
5.1
5.1
5.1
5.1
5.1
5.1
5.1
5.1
5.1
5.1
5.1
5.1
5.1
5.1
5.1
5.09107872
5.06609913
5.02773761
4.97867055
4.92157434
4.85912536
4.794
4.72887464
4.66642566
4.60932945
4.56026239
4.52190087
4.49692128
4.488
4.47833528
4.45127405
4.40971574
4.35655977
4.29470554
4.22705248
4.1565
4.08594752
4.01829446
3.95644023
3.90328426
3.86172595
3.83466472
3.825
3.81297376
3.77930029
3.72758746
3.66144315
3.58447522
3.50029155
3.4125
3.32470845
3.24052478
3.16355685
3.09741254
3.04569971
3.01202624
3
